/* XPM */
static char *result[] = {
/* columns rows colors chars-per-pixel */
"72 72 133 2 ",
"   c #002300",
".  c #002901",
"X  c #003501",
"o  c #023B01",
"O  c #143B0A",
"+  c #14361A",
"@  c #1B3C1D",
"#  c #064702",
"$  c #074902",
"%  c #084902",
"&  c #0D5D03",
"*  c #106204",
"=  c #176B07",
"-  c #186D07",
";  c #197E05",
":  c #264B21",
">  c #2B4C24",
",  c #364A29",
"<  c #3D512C",
"1  c #4F5634",
"2  c #545836",
"3  c #1C8107",
"4  c #238807",
"5  c #258A08",
"6  c #379815",
"7  c #399A15",
"8  c #08AD07",
"9  c #0DAF09",
"0  c #14AD07",
"q  c #1CAC06",
"w  c #15AD08",
"e  c #1DAD08",
"r  c #23AF0A",
"t  c #2DB609",
"y  c #30B80B",
"u  c #3EA115",
"i  c #2EB411",
"p  c #32B612",
"a  c #739438",
"s  c #2CC007",
"d  c #2CC20B",
"f  c #2CCA0C",
"g  c #32C30B",
"h  c #30CB0D",
"j  c #3EC80B",
"k  c #3ECF14",
"l  c #40C90D",
"z  c #44D60D",
"x  c #45D90D",
"c  c #48DA0E",
"v  c #40C713",
"b  c #42C814",
"n  c #4CC41E",
"m  c #52C31F",
"M  c #4EC420",
"N  c #53C423",
"B  c #58C425",
"V  c #56C825",
"C  c #5AC825",
"Z  c #5EC529",
"A  c #5BC828",
"S  c #5ED325",
"D  c #5CD925",
"F  c #62D426",
"G  c #60D927",
"H  c #67D52A",
"J  c #69D32A",
"K  c #63DB28",
"L  c #7EC53B",
"P  c #6DD733",
"I  c #74D734",
"U  c #79DA36",
"Y  c #7DD73B",
"T  c #7FDA3B",
"R  c #6DE225",
"E  c #7AE536",
"W  c #84CC3C",
"Q  c #88CC3C",
"!  c #82D73C",
"~  c #83DA3C",
"^  c #86E536",
"/  c #85E23A",
"(  c #8CE23D",
")  c #849D50",
"_  c #9EC64D",
"`  c #A4C64E",
"'  c #A6C651",
"]  c #ABC652",
"[  c #9DE64E",
"{  c #95EA48",
"}  c #9AED48",
"|  c #9DF049",
" . c #A1E64F",
".. c #A5EB4F",
"X. c #AAED4A",
"o. c #B1EF4E",
"O. c #A7EA52",
"+. c #AAEB53",
"@. c #B0EA54",
"#. c #ADF154",
"$. c #B6F857",
"%. c #B8FB57",
"&. c #B3E863",
"*. c #B9EA65",
"=. c #BBE76A",
"-. c #BCE96A",
";. c #C1FF56",
":. c #CCFB57",
">. c #C5FD5E",
",. c #CFFB5E",
"<. c #D0FA5E",
"1. c #DBFF5E",
"2. c #CEED65",
"3. c #C0EA6C",
"4. c #D5ED66",
"5. c #C7FF60",
"6. c #CAFA65",
"7. c #C9F36D",
"8. c #D4FE65",
"9. c #DBFF67",
"0. c #D9FF6E",
"q. c #DCEE7B",
"w. c #CDF370",
"e. c #D5F377",
"r. c #DDFF70",
"t. c #E0FF60",
"y. c #E2FF6D",
"u. c #EAFF6F",
"i. c #E4FF71",
"p. c #ECFF72",
"a. c #F3FF74",
"s. c #EDFF84",
"d. c #F3FF87",
/* pixels */
"r r r e Y r.0.0.6.i r r e ! i.y.y.4.b g g g ( a.u.u.9.b h h f / y.9.y.,.k f h f ( y.9.y.<.b g g g ( a.u.u.9.p r r r ! i.y.y.4.p r r e I 5.>.>.>.",
"r r r e Y r.0.0.6.p r r q ! i.y.y.8.b g g s ( a.u.u.9.k f h f ^ y.t.t.<.k h h f ^ t.t.t.<.b g g y ( p.u.u.4.p r r q ! y.y.y.8.p r r e I 5.>.>.>.",
"q r r q T i.r.i.6.i e e q ! p.i.i.8.v g g s ( a.p.p.9.k f f f ^ u.t.y.<.k f f f ( u.t.y.8.j g g s ( a.p.a.9.p r r q ! p.i.i.8.i e e q I 6.>.5.>.",
"N m N n ~ #.+.#.O.A B B N L ] ' ` ` J F H F Q ] ] ] ' H G D D / o.o.o.X.D D D D ^ o.@.o.X.J F F F Q ] ] ] ` B B B B L ' ' ' _ Z B N B U | | | | ",
"8.8.8.9.^ g g g b 6.y.i.i.a   . . O 4.u.u.a.a   . . O 2.y.y.i.( g g g b >.8.8.8./ g g g b 6.0.y.p.a   . . O 4.u.u.a.a   . . O 2.i.y.i./ d d d f ",
"8.8.8.9.^ y g g b 8.y.y.u.a   . . O 4.u.u.a.a   . . O 2.y.y.i.( g g g b >.8.8.9./ s g g b 8.u.y.y.a . . . O 4.u.u.a.a   . . O 2.y.y.i.( d d d d ",
"8.8.8.8./ s g g b 8.y.y.i.a   . . O 4.u.u.p.a   . . O 2.y.y.p.( y g g b :.8.8.9./ g g g b 8.y.y.i.a   . . O 4.u.u.p.a   . . O 2.0.y.r.{ d d d d ",
"8.8.8.9./ g g g b 8.y.y.i.a   . . O 4.u.u.a.a   . . O 2.i.0.i.( g g g b >.8.8.9./ g g g b 4.y.y.i.a   . . O 4.u.u.a.a   . . O 2.i.r.r.~ d d d g ",
"R R R R u & * * = B F F F Q ' ' ' _ Z B B B L ' ' ' _ J F F F 7 * * * - F R R R u & * * = C F F S W ' ' ' _ Z B B B L ' ' ' _ J H F G 6 & & & & ",
"z z z x 4 X o o # t g y s ( p.i.y.0.i e q q ! p.u.i.8.v g g g ; o o o % j z z x 5 o o o # t g g s ( p.i.i.8.p e q 0 ! p.y.p.8.j g g g ; . X X X ",
"z z z c 4 o # o # y g g s ( i.y.y.4.p r r q ! i.y.y.8.v g g h 3 o o o % l x z c 4 o o o $ y g g s ( i.y.y.4.p r r q ! i.i.i.8.b g g h 3 X X X X ",
"z z z x 4 o o o # t g g s ( p.i.i.8.p e q q ! p.i.i.8.v g g g 3 o o o % j z z x 4 o o o # t g g y ( p.i.i.8.i e r q ! u.i.i.4.b d d g ; X X X X ",
"K R R R u & * * = C S S S ~ @.@.+. .Z N B N ! @.+.@...J S S G 7 & * * - H R R R u * * * - C S S D ~ @.@.+. .Z B B N ! @.+.+...J S S D 6 & * & * ",
"8.8.8.9.~ g g g v 6.0.0.r.Y r r r p 6.0.0.r.Y e r r p 6.0.0.r.~ g g g b :.8.8.9.~ g j g b 6.0.0.0.! e r r p 6.0.0.r.Y q r r p 6.0.0.r.~ d d d d ",
"8.8.8.9./ g g g b 6.0.0.0.Y e r r p 6.0.0.0.Y q r r p 6.0.0.r./ s g g b >.8.8.9./ s g g b 6.0.0.0.Y e r r p 6.0.0.r.Y e r r p 6.0.0.0./ r f d d ",
"8.8.8.9./ g g g b 6.0.0.y.T e r r i 6.0.0.r.! q r r p 6.0.0.r./ g g g b >.9.8.9./ s g g b 6.0.0.0.T r r r i 6.0.0.0.! q r r p 6.0.0.r.T d f d d ",
"8.8.8.8./ s g g b 6.0.0.r.Y e r r p 7.0.0.0.Y e r r p 6.0.0.r.~ s g y k >.8.8.9./ g g g k 6.0.0.i.Y e r r p 6.0.0.r.Y e r r p 7.r.0.r.~ d d d d ",
"B m m n ~ #.#.o.O.A N N M Y O.O.O. .A N N N Y +.O.+. .A N N N ! #.#.#.O.C N N n ~ #.+.+. .A N B N Y +.O.O. .A N N M Y O.O.+. .C N N M U | } } } ",
"r r q q Y i.r.0.6.i e e q Y i.r.r.6.i e e q Y i.0.r.6.i e e q Y i.0.r.6.t r r q Y i.0.0.7.p e e q Y i.0.r.6.i e e q Y i.0.r.6.i e e q I 5.5.5.5.",
"r r r r Y r.0.0.2.p r r e Y r.0.0.6.p r r e Y r.0.0.6.p r r q Y r.0.0.2.p r r q Y 0.0.0.6.p r r q Y r.0.0.2.p r r e Y r.0.0.6.p r r e I 5.5.5.5.",
"e e e q Y i.r.0.6.p e r q Y i.0.r.6.i e q q Y r.0.0.6.p q q q Y i.r.r.6.p e e q Y i.r.0.6.i e r q Y i.r.0.6.i e e q Y i.r.0.6.p w r q I 6.5.5.6.",
"N N m m Y +.O.O. .B N N N Y +.+.O.[ A N B N Y +.O.O. .Z N N N Y +.O.+.[ N N B n Y +.O.+. .A N N N Y +.O.+. .A N N N Y +.O.+. .A N N N I } { { | ",
"8.8.8.9.Y e r r p 6.0.0.r.Y q r r p 6.0.0.r.Y e r r i 6.r.0.r.Y e r r p :.8.8.9.Y e r r p 6.0.8.r.Y q r r p 6.0.0.r.Y e r r p 6.0.0.r.Y w w w w ",
"8.8.8.9.Y e r r i 6.0.0.r.Y e r r p 6.0.0.r.Y q r r p 7.0.0.r.Y e r r p >.8.8.9.Y e r r i 6.0.0.r.Y e r r p 6.0.0.r.Y e r r p 6.0.0.r.T w w w e ",
"8.8.8.9.U r r r p 2.0.0.r.Y e r r p 6.0.0.r.Y e r r p 6.0.0.r.Y e r r p >.8.8.9.Y q r r p 6.0.0.r.Y e r r p 6.0.0.r.Y e r r p 2.0.0.r.I w w r w ",
"8.8.8.9.Y e r r p 6.8.0.r.Y q r r p 6.0.0.r.Y e r r p 7.0.0.r.Y e r r p :.8.0.9.Y e r r i 6.0.0.r.Y e r r i 6.0.0.r.Y e r r i 6.0.r.r.Y w w w e ",
"N m m m Y O.O.O. .A N N N Y +.O.+. .B B N N Y O.O.+.[ C N N N Y +.O.+. .C B N n Y +.O.O.[ Z N B N Y +.O.O. .Z N N m Y +.O.+. .A N N N I { { { { ",
"e e r q Y i.i.0.6.i e e q Y r.r.r.6.i e e q Y i.0.r.6.i e q q Y i.0.0.6.i q q q Y i.0.r.6.p e e q Y i.r.r.6.i e q w Y i.r.r.6.i e e q I 6.5.5.5.",
"r r r e Y 0.0.0.6.p r r e Y r.0.0.6.p r r q Y r.0.0.6.p r r e Y r.0.0.2.p r r q Y r.0.0.2.p r r q Y r.0.r.6.p r r q Y r.0.0.6.p r r e I 5.5.5.5.",
"e r e q ! i.0.0.6.i e r q Y i.0.0.7.p q q q Y i.0.0.6.i e r q Y i.0.0.6.i q r q Y i.r.0.6.i e e q Y i.0.r.6.i e e q Y i.r.0.6.i r w q I 5.5.5.5.",
"m m N m Y O.O.+. .A N N N Y +.+.+. .A N B M Y +.O.+. .Z B N M Y +.O.O. .C N N m Y +.O.O. .A N N N Y O.O.O. .A N N N Y +.O.+. .A N N N U { { } { ",
"8.8.8.9.U r r r p 7.0.0.0.Y q r r p 6.0.0.r.Y e r r p 6.0.0.r.Y e r r p >.8.8.9.Y e r r p 6.0.0.r.Y e r r i 6.0.0.r.Y e r r p 6.0.0.r.Y w w w r ",
"8.8.8.9.Y e r r i 6.0.0.0.Y r r r p 6.0.0.r.Y r r r p 6.0.0.r.Y e r r p :.8.8.9.Y q r r y 6.0.0.0.Y e r r p 6.0.0.r.Y r r r p 2.0.0.0.I w w w w ",
"8.8.8.9.Y e r r i 6.0.0.i.Y q r r i 6.0.0.r.Y q r r p 6.0.0.r.Y e r r p >.8.8.9.Y e r r p 6.0.0.r.Y q r r p 6.0.0.r.Y q r r i 6.0.0.r.Y w w r w ",
"8.8.8.9.Y q r r p 6.0.0.r.Y q r r p 6.0.0.0.Y q r r p 6.0.0.r.Y e r r p :.8.8.9.Y e r r p 6.0.0.r.Y e r r p 6.0.0.r.Y e r r p 6.0.0.r.Y w w w w ",
"N m m n Y +.O.+.[ A N N N ! @.+.@. .A N N N ! @.+.+. .A N N N Y +.O.+.[ V N N N Y +.O.+.[ A N N m ! @.@.@. .B N N N Y @.+.+.O.A N N N I [ { } { ",
"r r e q Y r.r.0.6.p e r q Y p.i.i.0.t e q q ! p.p.i.4.i e r q Y i.0.r.6.i e e q Y r.r.0.6.p q e q ! p.i.i.4.p e e q ! p.u.i.8.i r e q I 6.5.5.5.",
"r r r q Y r.0.0.6.p r r e ! i.i.y.4.p r r q ! i.y.y.8.p r r q Y r.0.0.6.p r r e Y r.0.0.6.p r r e ! i.i.u.6.p r r e ! i.y.y.4.p r r e I 5.%.5.5.",
"r e q q Y i.r.0.6.p q e q ~ p.i.i.8.p e e q ! p.i.i.8.i e e q Y r.r.r.6.i r e q T i.r.0.6.i e r q ! p.i.i.8.i e q q ! p.i.i.0.t r e q I 6.5.5.5.",
"m N m m ~ #.+.+.O.Z B N N L ] ' ' _ Z B B B L ' ' ' _ Z N B N ~ #.+.+.O.B m m M ~ #.+.+.O.Z A N m L ' ' ' _ Z C B B L ' ' ' _ Z N N N T | | } { ",
"8.8.8.9./ g g g b 8.r.y.i.a   . . O 4.u.u.a.a   . . O 2.y.y.i.( g g g b >.9.8.9./ g g g b 8.0.y.i.a   . . O 4.u.u.p.a   . . O 4.u.0.p.( s d d d ",
"8.8.8.9./ s g g b 8.y.y.i.a     . O 4.u.u.p.a   . . O 2.y.i.p.~ s g g b >.8.8.9./ s g g b 4.y.y.p.a   . . O 4.u.u.p.a   . . O 2.y.y.i.~ d d f f ",
"8.8.8.9./ g g g b 8.y.y.i.a     . O 4.u.u.a.a   . . O 2.y.y.i.( g g g b >.8.8.9.~ g g g v 8.y.y.i.a   . . O 4.u.u.a.a   . . O 2.u.0.i.~ s d d d ",
"8.8.8.8.^ g g g v 8.y.y.i.a       O 4.p.u.a.a   . . O 2.y.y.i.( g g g b :.8.8.9.^ g g g v 8.y.u.i.a   . . O 4.u.u.p.a   . . O 2.y.0.i.{ d d d d ",
"R R R R u * * * = C F F F W ' ' ' _ Z B B B L ' ' ' _ J F F F 7 * * * - H R R R u * * * = C F F F Q ' ' ' _ Z B B B L ' ' ' _ J H S H 6 & & & & ",
"z z z c 4 X o o # t g g s ( p.i.i.8.p q q q ! p.i.i.8.v g g g ; X o o % l z z x 4 X o o # t g g t ^ p.i.i.8.i e e q ! p.u.i.0.j g g d ; X X X X ",
"z z z c 5 o o o $ t g g s ( i.y.y.4.p r r q ! u.y.y.8.b g g h 3 o o o % l z z c 4 o o # # t g g s ( i.y.y.8.p r r q ! i.i.i.4.k g g g ; X X o X ",
"z z z c 4 X o o # t g g s ( p.i.i.8.p e e q ! i.y.u.8.v g g g 3 o o o % j z z x 4 X o o # t g g s ( p.i.i.4.p e q q ! p.i.i.8.j g g g ; X X X X ",
"K R R R u & * * = C S F S ~ @.+.+.O.A N N N ! +.@.+.O.J S S G 7 * * * - F R R R u * * * = V S S S ~ @.@.+. .Z N B M ! @.@.@. .J S S D 6 & & & & ",
"8.8.8.9./ g g g v 6.0.0.r.Y r r r p 6.0.0.r.Y e r r p 6.0.0.r.~ g g g b >.8.8.9./ g g g v 6.0.0.r.Y r r r p 6.0.0.r.Y e r r p 6.0.0.r./ t d d d ",
"8.8.8.9./ g g g b 6.9.0.0.Y e r r p 6.0.0.r.Y e r r p 2.0.0.r.~ y g g b :.8.8.9./ g g g b 6.0.0.r.Y e r r p 6.0.0.r.Y q r r p 6.0.0.r.T d d d d ",
"8.8.8.9./ g g g b 6.0.0.0.Y r r r i 6.0.0.r.Y q r r p 6.0.0.r./ g g g b >.8.8.9.^ y g g b 6.0.0.0.T e r r y 7.0.0.r.Y e r r p 6.0.0.r.U d d d f ",
"8.8.8.8./ s g g k 6.0.0.i.Y e r r p 2.0.0.r.Y e r r p 6.0.0.r./ g g g b >.8.8.8./ s g g v 6.0.0.i.Y e r r p 6.0.0.r.Y e r r p 6.r.0.r.{ d d d d ",
"m m m n ~ @.#.+. .A N B N Y +.O.+. .A M N N Y O.O.O. .Z N N N Y #.#.+...C B N m T #.#.#.O.Z N N N Y O.O.+.[ A N N N Y +.O.O. .A N N M U | | | } ",
"r r r q T i.0.r.6.p e e q Y i.0.r.6.i e e q Y i.0.0.6.p e e q Y r.0.0.8.i e e q Y i.r.r.6.i e e q Y i.r.0.6.p e e q Y r.r.r.6.p e e q P 5.5.5.5.",
"r r r r T 0.0.0.6.p r r q Y r.0.0.6.p r r e Y r.0.0.6.p r r e Y r.0.0.6.p r r e Y 0.0.0.6.p r r q Y r.0.0.6.p r r q Y r.0.0.6.p r r e I 5.5.5.5.",
"r e q q Y i.r.0.6.i e e q Y r.r.r.6.p e e q Y i.0.0.7.i r e q Y i.r.0.6.p e e q Y i.0.0.4.i e e q Y i.0.r.6.i e q q Y i.r.r.7.t w e w P 5.5.5.5.",
"m N N m Y +.O.O. .Z N N N Y +.O.O. .A N N N Y +.+.+. .A N N M Y +.O.+. .A N N N Y O.O.O. .A N N N Y +.O.+. .A M N N Y +.O.O. .Z N N N Y { [ { | ",
"8.8.8.9.Y q r r p 6.0.0.r.Y q r r i 6.0.0.r.Y q r r p 6.0.0.r.Y q r r p >.8.8.9.Y q r r p 6.0.0.r.Y e r r p 6.0.0.r.Y q r r p 6.0.0.0.Y w w w w ",
"8.8.8.9.Y q r e p 6.0.0.r.Y q r r i 6.0.0.r.Y e r r i 6.0.0.r.Y q r r p :.8.8.9.Y q r r p 6.0.0.r.Y e r r p 2.0.0.r.Y q r r p 6.0.0.r.Y w q w e ",
"8.8.8.9.Y q r r t 6.0.0.r.Y r r r p 6.0.0.r.Y e r r p 6.0.0.0.Y e r r p >.8.8.9.U r r r t 7.0.0.r.Y e r r p 6.0.0.r.Y e r r p 7.0.0.r.I w w w w ",
"8.8.8.9.Y e r r p 7.0.r.r.Y q r r p 2.0.0.r.Y e r r p 6.0.0.r.Y r r r p >.4.8.9.Y e r r p 6.0.0.r.Y e r r p 6.0.0.r.Y e r r p 6.0.0.r.Y w w r w ",
"m m m N Y +.O.+.[ A N N N Y +.O.+. .A N N N Y +.+.+.[ Z N B N Y +.O.+. .C m N m Y +.O.+.[ A N N N Y +.O.O. .A N B M Y +.+.+.[ A N V N U | } { { ",
"e r e q Y i.r.r.6.i q q q Y i.r.0.6.i e e q Y i.0.0.6.i e q q Y i.0.0.6.i e e q Y i.0.r.6.i e e q Y i.r.r.6.i e e q Y i.0.0.6.i e e w I 6.5.6.6.",
"r r r q U 0.0.0.7.i r r e Y r.0.0.6.i r r e Y r.r.0.7.p r r e T r.0.0.6.p r r e ! 0.0.0.6.p r r e Y r.0.0.6.i r r e Y r.0.0.6.i r r e I 5.5.>.>.",
"r r r q ! i.0.0.6.i w r e Y i.r.r.6.p e e e ! r.r.r.5.i r e q Y r.r.r.6.i e e q Y i.r.0.6.i r e q Y i.r.r.6.i e e w Y i.r.r.6.i e e q I 5.5.5.5.",
"n n m n Y +.+.O.[ V M M M U O.+.O.[ N M M M Y #.#.#.O.C B B m T #.#.#.O.A B m m ~ #.+.#.O.V M M M Y O.O.O.[ V M M M Y O.O.O.[ V M M M P { { { { ",
"%.;.;.;.P w w q i $.5.5.5.P w w w i $.5.%.5.E f f f k ,.9.9.y.^ f f f k :.1.1.1.^ f h f k %.%.>.5.P w w w i $.5.5.5.P w w w i $.5.5.5.P 8 9 9 9 ",
";.;.;.>.P w q w i $.%.6.5.I w w w i $.5.5.5.E f h h z <.t.y.t.( f f h k :.1.1.t.^ f h h k %.5.>.6.I w w w i $.%.5.5.P w w 9 i $.5.%.%.P 8 9 9 9 ",
";.;.;.>.H w r w i %.5.%.5.I w w 9 i $.%.5.5.E f h h k <.9.t.y.^ f h f z :.1.1.t.^ f f f k %.>.>.6.I w e w i $.5.5.5.P w w 9 i $.5.5.6.P 8 9 9 9 ",
"%.;.%.>.P w e e i %.5.5.5.I w q w i %.5.5.5.E f h h b 6.t.9.y.^ f h h l :.1.8.9.^ f f f k %.>.>.6.P w w w i $.5.6.6.P w i 9 i %.5.5.5.P 8 9 9 9 ",
"r.y.r.r.w.&.&.&.-.e.r.i.r.w.=.-.-.3.s.s.s.d.) + @ @ @ 2 2 2 2 < : : : > 1 2 2 2 , @ @ @ > q.s.s.s.e.-.-.-.-.r.r.r.r.w.&.&.*.*.e.r.r.r.7.&.&.&.&."
};
