/* XPM */
static char *result[] = {
/* columns rows colors chars-per-pixel */
"80 81 142 2 ",
"   c #0D0E0E",
".  c #0E0F0F",
"X  c #0F1010",
"o  c #101111",
"O  c #111212",
"+  c #121313",
"@  c #131414",
"#  c #141515",
"$  c #151616",
"%  c #161717",
"&  c #171818",
"*  c #181818",
"=  c #181919",
"-  c #1A1B1B",
";  c #1B1C1C",
":  c #242525",
">  c #252626",
",  c #262727",
"<  c #272727",
"1  c #272828",
"2  c #282929",
"3  c gray16",
"4  c #292A2A",
"5  c #3C3C3C",
"6  c #3E3F3F",
"7  c #404141",
"8  c #444545",
"9  c #464747",
"0  c #484848",
"q  c #484949",
"w  c #494949",
"e  c #494A4A",
"r  c gray29",
"t  c #4A4B4B",
"y  c #4B4B4B",
"u  c #4B4C4C",
"i  c #4C4C4C",
"p  c gray30",
"a  c #4D4E4E",
"s  c #4E4E4E",
"d  c #505151",
"f  c #585959",
"g  c #5A5B5B",
"h  c #5B5C5C",
"j  c #5C5D5D",
"k  c #5E5F5F",
"l  c #646464",
"z  c gray40",
"x  c #686868",
"c  c #686969",
"v  c DimGray",
"b  c #696A6A",
"n  c #6A6A6A",
"m  c #6A6B6B",
"M  c gray42",
"N  c #6B6C6C",
"B  c #6C6D6D",
"V  c #6D6D6D",
"C  c #6D6E6E",
"Z  c #6F7070",
"A  c #717171",
"S  c #727373",
"D  c gray47",
"F  c #797979",
"G  c #797A7A",
"H  c gray48",
"J  c #7B7B7B",
"K  c #7C7C7C",
"L  c gray49",
"P  c gray55",
"I  c #8D8D8D",
"U  c #8E8E8E",
"Y  c #8E8F8F",
"T  c gray56",
"R  c #909090",
"E  c #929292",
"W  c gray58",
"Q  c #959595",
"!  c gray59",
"~  c #979797",
"^  c #989898",
"/  c gray60",
"(  c #9A9A9A",
")  c #9B9B9B",
"_  c gray61",
"`  c #9D9D9D",
"'  c gray62",
"]  c #9F9F9F",
"[  c #A0A0A0",
"{  c gray63",
"}  c #A2A2A2",
"|  c #A2A3A3",
" . c gray64",
".. c #A5A5A5",
"X. c gray65",
"o. c #A7A7A7",
"O. c gray66",
"+. c #A9A9A9",
"@. c #AEAEAE",
"#. c gray69",
"$. c #B1B1B1",
"%. c #B4B4B4",
"&. c #B6B6B6",
"*. c #B7B7B7",
"=. c gray72",
"-. c #B9B9B9",
";. c gray73",
":. c #BBBBBB",
">. c #BCBCBC",
",. c gray75",
"<. c gray77",
"1. c #C5C5C5",
"2. c #C6C6C6",
"3. c gray78",
"4. c #C8C8C8",
"5. c #CACACA",
"6. c #CBCBCB",
"7. c gray80",
"8. c #CDCDCD",
"9. c #CECECE",
"0. c gray81",
"q. c #D0D0D0",
"w. c gray82",
"e. c gray84",
"r. c #D7D7D7",
"t. c #D8D8D8",
"y. c gray85",
"u. c #DADADA",
"i. c gray86",
"p. c #DDDDDD",
"a. c gray87",
"s. c gray88",
"d. c #E2E2E2",
"f. c gray89",
"g. c #E4E4E4",
"h. c gray90",
"j. c #E6E6E6",
"k. c gray91",
"l. c #E9E9E9",
"z. c #EAEAEA",
"x. c gray92",
"c. c None",
/* pixels */
"c.c.c.c.c.c.c.c.c.c.c.c.c.c.c.c.c.c.c.c.c.c.c.c.c.c.c.c.c.c.c.c.c.c.c.c.c.c.c.c.c.c.c.c.c.c.c.c.c.c.c.c.c.c.c.c.c.c.c.c.c.c.c.c.c.c.c.c.c.c.c.c.c.c.c.c.c.c.c.c.",
"c.c.c.c.c.c.c.c.c.c.c.c.c.c.c.c.c.c.c.c.c.c.c.c.c.c.c.c.c.c.c.c.c.c.c.c.c.c.c.c.c.c.c.c.c.c.c.c.c.c.c.c.c.c.c.c.c.c.c.c.c.c.c.c.c.c.c.c.c.c.c.c.c.c.c.c.c.c.c.c.",
"c.c.c.c.c.c.c.c.c.c.c.c.c.c.c.c.c.c.c.c.c.c.c.c.c.c.c.c.c.c.c.c.c.c.c.c.c.c.c.c.c.c.c.c.c.c.c.c.c.c.c.c.c.c.c.c.c.c.c.c.c.c.c.c.c.c.c.c.c.c.c.c.c.c.c.c.c.c.c.c.",
"c.c.c.c.c.c.c.c.c.c.c.c.c.c.c.c.c.c.c.c.c.c.c.c.c.c.c.c.c.c.c.c.c.c.c.c.c.c.c.c.c.c.c.c.c.c.c.c.c.c.c.c.c.c.c.c.c.c.c.c.c.c.c.c.c.c.c.c.c.c.c.c.c.c.c.c.c.c.c.c.",
"c.c.c.c.c.c.c.c.c.c.c.c.c.c.c.c.c.c.c.c.c.c.c.c.c.c.c.c.c.c.c.c.c.c.c.c.c.c.c.c.c.c.c.c.c.c.c.c.c.c.c.c.c.c.c.c.c.c.c.c.c.c.c.c.c.c.c.c.c.c.c.c.c.c.c.c.c.c.c.c.",
"c.c.c.c.c.c.c.c.c.c.c.c.c.c.c.c.c.c.c.c.c.c.c.c.c.c.c.c.c.c.c.c.c.c.c.c.c.c.c.c.c.c.c.c.c.c.c.c.c.c.c.c.c.c.c.c.c.c.c.c.c.c.c.c.c.c.c.c.c.c.c.c.c.c.c.c.c.c.c.c.",
"c.c.c.c.c.c.c.c.c.c.c.c.c.c.c.c.c.c.c.c.c.c.c.c.c.c.c.c.c.c.c.c.c.c.c.c.c.c.c.c.c.c.c.c.c.c.c.c.c.c.c.c.c.c.c.c.c.c.c.c.c.c.c.c.c.c.c.c.c.c.c.c.c.c.c.c.c.c.c.c.",
"c.c.c.c.c.c.c.c.c.c.c.c.c.c.c.c.c.c.c.c.c.c.c.c.c.c.c.c.c.c.c.c.c.c.c.c.c.c.c.c.c.c.c.c.c.c.c.c.c.c.c.c.c.c.c.c.c.c.c.c.c.c.c.c.c.c.c.c.c.c.c.c.c.c.c.c.c.c.c.c.",
"c.c.c.c.c.c.c.c.c.c.c.c.c.c.c.c.c.c.c.c.c.c.c.c.c.c.c.c.c.c.c.c.c.c.c.c.c.c.c.c.c.c.c.c.c.c.c.c.c.c.c.c.c.c.c.c.c.c.c.c.c.c.c.c.c.c.c.c.c.c.c.c.c.c.c.c.c.c.c.c.",
"c.c.c.c.c.c.c.c.c.c.c.c.c.c.c.c.c.c.c.c.c.c.c.c.c.c.c.c.c.c.c.c.c.c.c.c.c.c.c.c.c.c.c.c.c.c.c.c.c.c.c.c.c.c.c.c.c.c.c.c.c.c.c.c.c.c.c.c.c.c.c.c.c.c.c.c.c.c.c.c.",
"c.c.c.c.c.c.c.c.c.c.c.c.c.c.c.c.c.c.c.c.c.c.c.c.c.c.c.c.c.c.O O O O O O O O O O O O O O O O O O O O c.c.c.c.c.c.c.c.c.c.c.c.c.c.c.c.c.c.c.c.c.c.c.c.c.c.c.c.c.c.",
"c.c.c.c.c.c.c.c.c.c.c.c.c.c.c.c.c.c.c.c.c.c.c.c.c.c.c.c.c.c.O O O O O O O O O O O O O O O O O O O O c.c.c.c.c.c.c.c.c.c.c.c.c.c.c.c.c.c.c.c.c.c.c.c.c.c.c.c.c.c.",
"c.c.c.c.c.c.c.c.c.c.c.c.c.c.c.c.c.c.c.c.c.c.c.c.c.c.c.c.c.c.O O O O O O O O O O O O O O O O O O O O c.c.c.c.c.c.c.c.c.c.c.c.c.c.c.c.c.c.c.c.c.c.c.c.c.c.c.c.c.c.",
"c.c.c.c.c.c.c.c.c.c.c.c.c.c.c.c.c.c.c.c.c.c.c.c.c.c.c.c.c.c.O O O O O O O O O O O O O O O O O O O O c.c.c.c.c.c.c.c.c.c.c.c.c.c.c.c.c.c.c.c.c.c.c.c.c.c.c.c.c.c.",
"c.c.c.c.c.c.c.c.c.c.c.c.c.c.c.c.c.c.c.c.c.c.c.c.c.c.c.c.c.c.+ + + + + + + + + + + + + + + + + + + + c.c.c.c.c.c.c.c.c.c.c.c.c.c.c.c.c.c.c.c.c.c.c.c.c.c.c.c.c.c.",
"c.c.c.c.c.c.c.c.c.c.c.c.c.c.c.c.c.c.c.c.c.c.c.c.c.O O O X < x V B B B B B B B B B B B B B B B B C k & O O O O c.c.c.c.c.c.c.c.c.c.c.c.c.c.c.c.c.c.c.c.c.c.c.c.c.",
"c.c.c.c.c.c.c.c.c.c.c.c.c.c.c.c.c.c.c.c.c.c.c.c.c.O O O X 2 R ) ( ( ( ( ( ( ( ( ( ( ( ( ( ( ( ( _ L * O O O O c.c.c.c.c.c.c.c.c.c.c.c.c.c.c.c.c.c.c.c.c.c.c.c.c.",
"c.c.c.c.c.c.c.c.c.c.c.c.c.c.c.c.c.c.c.c.c.c.c.c.c.O O O X 2 U / ^ ^ ^ ^ ^ ^ ^ ^ ^ ^ ^ ^ ^ ^ ^ ^ ( J * O O O O c.c.c.c.c.c.c.c.c.c.c.c.c.c.c.c.c.c.c.c.c.c.c.c.c.",
"c.c.c.c.c.c.c.c.c.c.c.c.c.c.c.c.c.c.c.c.c.c.c.c.c.O O O X 2 U / ^ ^ ^ ^ ^ ^ ^ ^ ^ ^ ^ ^ ^ ^ ^ ^ ( J & O O O O c.c.c.c.c.c.c.c.c.c.c.c.c.c.c.c.c.c.c.c.c.c.c.c.c.",
"c.c.c.c.c.c.c.c.c.c.c.c.c.c.c.c.c.c.c.c.c.c.c.c.c.+ + + o 4 U / ^ ^ ^ ^ ^ ^ ^ ^ ^ ^ ^ ^ ^ ^ ^ ^ ( K = O + + + c.c.c.c.c.c.c.c.c.c.c.c.c.c.c.c.c.c.c.c.c.c.c.c.c.",
"c.c.c.c.c.c.c.c.c.c.c.c.c.c.c.c.c.c.c.c.O O O o > z M M n S Q ^ ^ ~ } 5.8.8.8.8.8.8.8.8.8.8.8.8.9.=.Z m M N j & O O O O c.c.c.c.c.c.c.c.c.c.c.c.c.c.c.c.c.c.c.c.",
"c.c.c.c.c.c.c.c.c.c.c.c.c.c.c.c.c.c.c.c.O O O o 1 T ) ( ( ( ^ ^ ^ ~ o.g.z.l.l.l.l.l.l.l.l.l.l.l.z.t.' ( ( _ J & O O O O c.c.c.c.c.c.c.c.c.c.c.c.c.c.c.c.c.c.c.c.",
"c.c.c.c.c.c.c.c.c.c.c.c.c.c.c.c.c.c.c.c.O O O o 1 I / ^ ^ ^ ^ ^ ^ ~ o.f.k.k.k.k.k.k.k.k.k.k.k.k.l.r._ ^ ^ ( H & O O O O c.c.c.c.c.c.c.c.c.c.c.c.c.c.c.c.c.c.c.c.",
"c.c.c.c.c.c.c.c.c.c.c.c.c.c.c.c.c.c.c.c.O O O o 1 I / ^ ^ ^ ^ ^ ^ ~ o.f.k.k.k.k.k.k.k.k.k.k.k.k.l.r._ ^ ^ ( H & O O O O c.c.c.c.c.c.c.c.c.c.c.c.c.c.c.c.c.c.c.c.",
"c.c.c.c.c.c.c.c.c.c.c.c.c.c.c.c.c.c.c.c.O O O o 1 I / ^ ^ ^ ^ ^ ^ ~ o.f.k.k.k.k.k.k.k.k.k.k.k.k.l.r._ ^ ^ ( H & O O O O c.c.c.c.c.c.c.c.c.c.c.c.c.c.c.c.c.c.c.c.",
"c.c.c.c.c.c.c.c.c.c.c.c.c.c.c.O O O o : l b v c A W ^ ^ ~ { 4.7.7.7.w.j.k.k.k.k.k.k.k.l.p.*.%.%.%.@./ ^ ^ / I M v v n g % O O O c.c.c.c.c.c.c.c.c.c.c.c.c.c.c.c.",
"c.c.c.c.c.c.c.c.c.c.c.c.c.c.c.O O O o , U ) ( ( ( ^ ^ ^ ~ X.g.z.l.l.l.k.k.k.k.k.k.k.k.l.r.) ! ~ ~ ~ ^ ^ ^ ^ / ( ( ( _ G % O O O O c.c.c.c.c.c.c.c.c.c.c.c.c.c.c.",
"c.c.c.c.c.c.c.c.c.c.c.c.c.c.c.O O O o , P / ^ ^ ^ ^ ^ ^ ~ X.d.k.k.k.k.k.k.k.k.k.k.k.k.l.t._ ^ ^ ^ ^ ^ ^ ^ ^ ^ ^ ^ ^ ( D % O O O O c.c.c.c.c.c.c.c.c.c.c.c.c.c.c.",
"c.c.c.c.c.c.c.c.c.c.c.c.c.c.c.O O O o , P / ^ ^ ^ ^ ^ ^ ~ X.d.k.k.k.k.k.k.k.k.k.k.k.k.l.t._ ^ ^ ^ ^ ^ ^ ^ ^ ^ ^ ^ ^ ( D % O O O O c.c.c.c.c.c.c.c.c.c.c.c.c.c.c.",
"c.c.c.c.c.c.c.c.c.c.c.c.c.c.c.O O O o , P / ^ ^ ^ ^ ^ ^ ~ X.d.k.k.k.k.k.k.k.k.k.k.k.k.l.t._ ^ ^ ^ ^ ^ ^ ^ ^ ^ ^ ^ ^ ( D % O O O O c.c.c.c.c.c.c.c.c.c.c.c.c.c.c.",
"c.c.c.c.c.c.c.c.c.c.c.c.c.c.c.O O O o , P / ^ ~ [ 3.6.6.6.q.j.k.k.k.k.k.k.k.k.k.k.k.k.l.t._ ^ ^ ^ ^ ^ ^ ^ ^ ^ ^ ^ ^ ( D % O O O O c.c.c.c.c.c.c.c.c.c.c.c.c.c.c.",
"c.c.c.c.c.c.c.c.c.c.c.c.c.c.c.O O O o , P / ^ ~ ..f.z.l.l.l.k.k.k.k.k.k.k.k.k.k.k.k.k.l.t._ ^ ^ ^ ^ ^ ^ ^ ^ ^ ^ ^ ^ ( D % O O O O c.c.c.c.c.c.c.c.c.c.c.c.c.c.c.",
"c.c.c.c.c.c.c.c.c.c.c.c.c.c.c.O O O o , P / ^ ~ ..d.k.k.k.k.k.k.k.k.k.k.k.k.k.k.k.k.k.l.t._ ^ ^ ^ ^ ^ ^ ^ ^ ^ ^ ^ ^ ( D % O O O O c.c.c.c.c.c.c.c.c.c.c.c.c.c.c.",
"c.c.c.c.c.c.c.c.c.c.c.c.c.c.c.O O O o , P / ^ ~ ..d.k.k.k.k.k.k.k.k.k.k.k.k.k.k.k.k.k.l.t._ ^ ^ ^ ^ ^ ^ ^ ^ ^ ^ ^ ^ ( D % O O O O c.c.c.c.c.c.c.c.c.c.c.c.c.c.c.",
"c.c.c.c.c.c.c.c.c.c.c.c.c.c.c.O O O o , P / ^ ~ ..d.k.k.k.k.k.k.k.k.k.k.k.k.k.k.k.k.k.l.t._ ^ ^ ^ ^ ^ ^ ^ ^ ^ ^ ^ ^ ( D % O O O O c.c.c.c.c.c.c.c.c.c.c.c.c.c.c.",
"c.c.c.c.c.c.c.c.c.c.c.c.c.c.c.O O O o , P / ^ ~ ..d.k.k.k.k.k.k.k.k.k.k.k.k.l.a.-.&.&.&.#.( ^ ^ ~  .4.5.5.6.,.( ^ ^ ( D % O O O O c.c.c.c.c.c.c.c.c.c.c.c.c.c.c.",
"c.c.c.c.c.c.c.c.c.c.c.c.c.c.c.O O O o , P / ^ ~ ..d.k.k.k.k.k.k.k.k.k.k.k.k.l.t.) ! ~ ~ ~ ^ ^ ^ ~ +.j.z.l.x.r.) ^ ^ ( D % O O O O c.c.c.c.c.c.c.c.c.c.c.c.c.c.c.",
"c.c.c.c.c.c.c.c.c.c.c.c.c.c.c.O O O o , P / ^ ~ ..d.k.k.k.k.k.k.k.k.k.k.k.k.l.y.` ^ ^ ^ ^ ^ ^ ^ ~ +.g.k.k.l.e.) ^ ^ ( D % O O O O c.c.c.c.c.c.c.c.c.c.c.c.c.c.c.",
"c.c.c.c.c.c.c.c.c.c.c.c.c.c.c.O O O o , P / ^ ~ ..d.k.k.k.k.k.k.k.k.k.k.k.k.l.y.` ^ ^ ^ ^ ^ ^ ^ ~ +.g.k.k.l.e.) ^ ^ ( D % O O O O c.c.c.c.c.c.c.c.c.c.c.c.c.c.c.",
"c.c.c.c.c.c.c.c.c.c.c.c.c.c.c.O O O o , P / ^ ~ ..d.k.k.k.k.k.k.k.k.k.k.k.k.l.y.` ^ ^ ^ ^ ^ ^ ^ ~ +.g.k.k.l.e.) ^ ^ ( D % O O O O c.c.c.c.c.c.c.c.c.c.c.c.c.c.c.",
"c.c.c.c.c.c.c.c.c.c.c.c.c.c.c.O O O o , P / ^ ~ ..d.k.k.l.s.:.*.*.*.*.*.*.*.*.$.( ^ ^ ^ ^ ^ ^ ^ ~ +.g.k.k.l.e.) ^ ^ ( D % O O O O c.c.c.c.c.c.c.c.c.c.c.c.c.c.c.",
"c.c.c.c.c.c.c.c.c.c.c.c.c.c.c.O O O o , P / ^ ~ ..d.k.k.l.u._ ! ~ ~ ~ ~ ~ ~ ~ ~ ^ ^ ^ ^ ^ ^ ^ ^ ~ +.g.k.k.l.e.) ^ ^ ( D % O O O O c.c.c.c.c.c.c.c.c.c.c.c.c.c.c.",
"c.c.c.c.c.c.c.c.c.c.c.c.c.c.c.O O O o , P / ^ ~ ..d.k.k.l.u.' ^ ^ ^ ^ ^ ^ ^ ^ ^ ^ ^ ^ ^ ^ ^ ^ ^ ~ +.g.k.k.l.e.) ^ ^ ( D % O O O O c.c.c.c.c.c.c.c.c.c.c.c.c.c.c.",
"c.c.c.c.c.c.c.c.c.c.c.c.c.c.c.O O O o , P / ^ ~ ..d.k.k.l.u.' ^ ^ ^ ^ ^ ^ ^ ^ ^ ^ ^ ^ ^ ^ ^ ^ ^ ~ +.g.k.k.l.e.) ^ ^ ( D % O O O O c.c.c.c.c.c.c.c.c.c.c.c.c.c.c.",
"c.c.c.c.c.c.c.c.c.c.c.c.c.c.c.O O O o , P / ^ ~ ..d.k.k.l.u.' ^ ^ ^ ^ ^ ^ ^ ^ ^ ^ ^ ^ ^ ^ ^ ~ ^ ! +.g.k.k.l.e.) ^ ^ ( D % O O O O c.c.c.c.c.c.c.c.c.c.c.c.c.c.c.",
"c.c.c.c.c.c.c.c.c.c.c.c.c.c.c.O O O o , P / ^ ~ ..d.k.k.l.u.' ^ ^ ^ ^ ^ ^ ^ ^ ^ ^ ^ ^ ~ } 1.4.4.3.0.j.k.k.l.e.) ^ ^ ( D % O O O O c.c.c.c.c.c.c.c.c.c.c.c.c.c.c.",
"c.c.c.c.c.c.c.c.c.c.c.c.c.c.c.O O O o , P / ^ ~ ..d.k.k.l.u.' ^ ^ ^ ^ ^ ^ ^ ^ ^ ^ ^ ^ ~ +.h.z.l.l.l.k.k.k.l.e.) ^ ^ ( D % O O O O c.c.c.c.c.c.c.c.c.c.c.c.c.c.c.",
"c.c.c.c.c.c.c.c.c.c.c.c.c.c.c.O O O o , P / ^ ~ ..d.k.k.l.u.' ^ ^ ^ ^ ^ ^ ^ ^ ^ ^ ^ ^ ~ O.g.k.k.k.k.k.k.k.l.e.) ^ ^ ( D % O O O O c.c.c.c.c.c.c.c.c.c.c.c.c.c.c.",
"c.c.c.c.c.c.c.c.c.c.c.c.c.c.c.O O O o , P / ^ ~ ..d.k.k.l.u.' ^ ^ ^ ^ ^ ^ ^ ^ ^ ^ ^ ^ ~ O.g.k.k.k.k.k.k.k.l.e.) ^ ^ ( D % O O O O c.c.c.c.c.c.c.c.c.c.c.c.c.c.c.",
"c.c.c.c.c.c.c.c.c.c.c.c.c.c.c.O O O o , I ( / ^ X.d.l.l.z.i.' ^ ^ ^ ^ ^ ^ ^ ^ ^ ~ ~ ~ ! O.g.k.k.k.k.l.l.l.z.r._ / / ) F % O O O O c.c.c.c.c.c.c.c.c.c.c.c.c.c.c.",
"c.c.c.c.c.c.c.c.c.c.c.c.c.c.c.O O O o - 8 e e 0 h #.;.-.;.%.( ^ ^ ^ ^ ^ ^ ^ ~ { <.3.3.2.9.j.k.k.l.a.>.-.-.:.[ s w e r 5 @ O O O O c.c.c.c.c.c.c.c.c.c.c.c.c.c.c.",
"c.c.c.c.c.c.c.c.c.c.c.c.c.c.c.O O O O O X X X   > P ~ ~ ~ ~ ^ ^ ^ ^ ^ ^ ^ ^ ~ O.h.z.l.l.l.k.k.k.l.r.( ! ~ ^ D # . X X X O O O O O c.c.c.c.c.c.c.c.c.c.c.c.c.c.c.",
"c.c.c.c.c.c.c.c.c.c.c.c.c.c.c.O O O O O O O O o 1 I / ^ ^ ^ ^ ^ ^ ^ ^ ^ ^ ^ ~ o.f.k.k.k.k.k.k.k.l.r._ ^ ^ ( H & O O O O O O O O O c.c.c.c.c.c.c.c.c.c.c.c.c.c.c.",
"c.c.c.c.c.c.c.c.c.c.c.c.c.c.c.O O O O O O O O o 1 I / ^ ^ ^ ^ ^ ^ ^ ^ ^ ^ ^ ~ o.f.k.k.k.k.k.k.k.l.r._ ^ ^ ( H & O O O O O O O O O c.c.c.c.c.c.c.c.c.c.c.c.c.c.c.",
"c.c.c.c.c.c.c.c.c.c.c.c.c.c.c.O O O O O O O O o 1 Y ( / / / ^ ^ ^ ^ ^ ^ ^ ^ ~ O.g.l.l.l.l.l.l.l.z.t.` / / ) J & O O O O O O O O O c.c.c.c.c.c.c.c.c.c.c.c.c.c.c.",
"c.c.c.c.c.c.c.c.c.c.c.c.c.c.c.c.c.c.c.O O O O o - 9 u u t f E ^ ^ ^ ^ ^ ^ ^ ^ ] =.;.;.;.;.;.;.;.>.| d y u i 6 @ O O O O c.c.c.c.c.c.c.c.c.c.c.c.c.c.c.c.c.c.c.c.",
"c.c.c.c.c.c.c.c.c.c.c.c.c.c.c.c.c.c.c.c.O O O O O X X X   , U / ^ ^ ^ ^ ^ ^ ^ ^ ~ ~ ~ ~ ~ ~ ~ ~ ^ G $ . X X X O O O O O c.c.c.c.c.c.c.c.c.c.c.c.c.c.c.c.c.c.c.c.",
"c.c.c.c.c.c.c.c.c.c.c.c.c.c.c.c.c.c.c.c.O O O O O O O O X 2 U / ^ ^ ^ ^ ^ ^ ^ ^ ^ ^ ^ ^ ^ ^ ^ ^ ( J * O O O O O O O O O c.c.c.c.c.c.c.c.c.c.c.c.c.c.c.c.c.c.c.c.",
"c.c.c.c.c.c.c.c.c.c.c.c.c.c.c.c.c.c.c.c.O O O O O O O O X 2 U / ^ ^ ^ ^ ^ ^ ^ ^ ^ ^ ^ ^ ^ ^ ^ ^ ( J * O O O O O O O O O c.c.c.c.c.c.c.c.c.c.c.c.c.c.c.c.c.c.c.c.",
"c.c.c.c.c.c.c.c.c.c.c.c.c.c.c.c.c.c.c.c.O O O O O O O O X 3 R ( / / / / / / / / / / / / / / / / ) K = O O O O O O O O O c.c.c.c.c.c.c.c.c.c.c.c.c.c.c.c.c.c.c.c.",
"c.c.c.c.c.c.c.c.c.c.c.c.c.c.c.c.c.c.c.c.c.c.c.c.O O O O o ; q a p p p p p p p p p p p p p p p p s 7 # O O O O c.c.c.c.c.c.c.c.c.c.c.c.c.c.c.c.c.c.c.c.c.c.c.c.c.",
"c.c.c.c.c.c.c.c.c.c.c.c.c.c.c.c.c.c.c.c.c.c.c.c.c.O O O O O X X X X X X X X X X X X X X X X X X X X O O O O O c.c.c.c.c.c.c.c.c.c.c.c.c.c.c.c.c.c.c.c.c.c.c.c.c.",
"c.c.c.c.c.c.c.c.c.c.c.c.c.c.c.c.c.c.c.c.c.c.c.c.c.O O O O O O O O O O O O O O O O O O O O O O O O O O O O O O c.c.c.c.c.c.c.c.c.c.c.c.c.c.c.c.c.c.c.c.c.c.c.c.c.",
"c.c.c.c.c.c.c.c.c.c.c.c.c.c.c.c.c.c.c.c.c.c.c.c.c.O O O O O O O O O O O O O O O O O O O O O O O O O O O O O O c.c.c.c.c.c.c.c.c.c.c.c.c.c.c.c.c.c.c.c.c.c.c.c.c.",
"c.c.c.c.c.c.c.c.c.c.c.c.c.c.c.c.c.c.c.c.c.c.c.c.c.O O O O O O O O O O O O O O O O O O O O O O O O O O O O O O c.c.c.c.c.c.c.c.c.c.c.c.c.c.c.c.c.c.c.c.c.c.c.c.c.",
"c.c.c.c.c.c.c.c.c.c.c.c.c.c.c.c.c.c.c.c.c.c.c.c.c.c.c.c.c.O O O O O O O O O O O O O O O O O O O O O c.c.c.c.c.c.c.c.c.c.c.c.c.c.c.c.c.c.c.c.c.c.c.c.c.c.c.c.c.c.",
"c.c.c.c.c.c.c.c.c.c.c.c.c.c.c.c.c.c.c.c.c.c.c.c.c.c.c.c.c.c.O O O O O O O O O O O O O O O O O O O O c.c.c.c.c.c.c.c.c.c.c.c.c.c.c.c.c.c.c.c.c.c.c.c.c.c.c.c.c.c.",
"c.c.c.c.c.c.c.c.c.c.c.c.c.c.c.c.c.c.c.c.c.c.c.c.c.c.c.c.c.c.O O O O O O O O O O O O O O O O O O O O c.c.c.c.c.c.c.c.c.c.c.c.c.c.c.c.c.c.c.c.c.c.c.c.c.c.c.c.c.c.",
"c.c.c.c.c.c.c.c.c.c.c.c.c.c.c.c.c.c.c.c.c.c.c.c.c.c.c.c.c.c.O O O O O O O O O O O O O O O O O O O O c.c.c.c.c.c.c.c.c.c.c.c.c.c.c.c.c.c.c.c.c.c.c.c.c.c.c.c.c.c.",
"c.c.c.c.c.c.c.c.c.c.c.c.c.c.c.c.c.c.c.c.c.c.c.c.c.c.c.c.c.c.O O O O O O O O O O O O O O O O O O O O c.c.c.c.c.c.c.c.c.c.c.c.c.c.c.c.c.c.c.c.c.c.c.c.c.c.c.c.c.c.",
"c.c.c.c.c.c.c.c.c.c.c.c.c.c.c.c.c.c.c.c.c.c.c.c.c.c.c.c.c.c.c.c.c.c.c.c.c.c.c.c.c.c.c.c.c.c.c.c.c.c.c.c.c.c.c.c.c.c.c.c.c.c.c.c.c.c.c.c.c.c.c.c.c.c.c.c.c.c.c.c.",
"c.c.c.c.c.c.c.c.c.c.c.c.c.c.c.c.c.c.c.c.c.c.c.c.c.c.c.c.c.c.c.c.c.c.c.c.c.c.c.c.c.c.c.c.c.c.c.c.c.c.c.c.c.c.c.c.c.c.c.c.c.c.c.c.c.c.c.c.c.c.c.c.c.c.c.c.c.c.c.c.",
"c.c.c.c.c.c.c.c.c.c.c.c.c.c.c.c.c.c.c.c.c.c.c.c.c.c.c.c.c.c.c.c.c.c.c.c.c.c.c.c.c.c.c.c.c.c.c.c.c.c.c.c.c.c.c.c.c.c.c.c.c.c.c.c.c.c.c.c.c.c.c.c.c.c.c.c.c.c.c.c.",
"c.c.c.c.c.c.c.c.c.c.c.c.c.c.c.c.c.c.c.c.c.c.c.c.c.c.c.c.c.c.c.c.c.c.c.c.c.c.c.c.c.c.c.c.c.c.c.c.c.c.c.c.c.c.c.c.c.c.c.c.c.c.c.c.c.c.c.c.c.c.c.c.c.c.c.c.c.c.c.c.",
"c.c.c.c.c.c.c.c.c.c.c.c.c.c.c.c.c.c.c.c.c.c.c.c.c.c.c.c.c.c.c.c.c.c.c.c.c.c.c.c.c.c.c.c.c.c.c.c.c.c.c.c.c.c.c.c.c.c.c.c.c.c.c.c.c.c.c.c.c.c.c.c.c.c.c.c.c.c.c.c.",
"c.c.c.c.c.c.c.c.c.c.c.c.c.c.c.c.c.c.c.c.c.c.c.c.c.c.c.c.c.c.c.c.c.c.c.c.c.c.c.c.c.c.c.c.c.c.c.c.c.c.c.c.c.c.c.c.c.c.c.c.c.c.c.c.c.c.c.c.c.c.c.c.c.c.c.c.c.c.c.c.",
"c.c.c.c.c.c.c.c.c.c.c.c.c.c.c.c.c.c.c.c.c.c.c.c.c.c.c.c.c.c.c.c.c.c.c.c.c.c.c.c.c.c.c.c.c.c.c.c.c.c.c.c.c.c.c.c.c.c.c.c.c.c.c.c.c.c.c.c.c.c.c.c.c.c.c.c.c.c.c.c.",
"c.c.c.c.c.c.c.c.c.c.c.c.c.c.c.c.c.c.c.c.c.c.c.c.c.c.c.c.c.c.c.c.c.c.c.c.c.c.c.c.c.c.c.c.c.c.c.c.c.c.c.c.c.c.c.c.c.c.c.c.c.c.c.c.c.c.c.c.c.c.c.c.c.c.c.c.c.c.c.c.",
"c.c.c.c.c.c.c.c.c.c.c.c.c.c.c.c.c.c.c.c.c.c.c.c.c.c.c.c.c.c.c.c.c.c.c.c.c.c.c.c.c.c.c.c.c.c.c.c.c.c.c.c.c.c.c.c.c.c.c.c.c.c.c.c.c.c.c.c.c.c.c.c.c.c.c.c.c.c.c.c.",
"c.c.c.c.c.c.c.c.c.c.c.c.c.c.c.c.c.c.c.c.c.c.c.c.c.c.c.c.c.c.c.c.c.c.c.c.c.c.c.c.c.c.c.c.c.c.c.c.c.c.c.c.c.c.c.c.c.c.c.c.c.c.c.c.c.c.c.c.c.c.c.c.c.c.c.c.c.c.c.c.",
"c.c.c.c.c.c.c.c.c.c.c.c.c.c.c.c.c.c.c.c.c.c.c.c.c.c.c.c.c.c.c.c.c.c.c.c.c.c.c.c.c.c.c.c.c.c.c.c.c.c.c.c.c.c.c.c.c.c.c.c.c.c.c.c.c.c.c.c.c.c.c.c.c.c.c.c.c.c.c.c."
};
