/* XPM */
static char *result[] = {
/* columns rows colors chars-per-pixel */
"80 81 2 1 ",
"  c black",
". c None",
/* pixels */
"................................................................................",
"................................................................................",
"................................................................................",
"................................................................................",
"................................................................................",
"................................................................................",
"................................................................................",
"................................................................................",
"................................................................................",
"................................................................................",
"................................................................................",
"................................................................................",
"................................................................................",
"................................................................................",
"................................................................................",
"................................................................................",
"................................................................................",
"................................................................................",
"................................................................................",
"................................................................................",
"..........................                            ..........................",
".........................                              .........................",
".........................                              .........................",
".........................                              .........................",
".........................                              .........................",
"................       .                                .       ................",
"...............                                                  ...............",
"...............                                                  ...............",
"...............                                                  ...............",
"...............                                                  ...............",
"...........  .                                                    .  ...........",
"..........                                                            ..........",
"..........                                                            ..........",
"..........                                                            ..........",
"..........                                                            ..........",
"......  .                                                              .  ......",
".....                                                                      .....",
".....                                                                      .....",
".....                                                                      .....",
".....                                                                      .....",
".....                                                                      .....",
".....                                                                      .....",
".....                                                                      .....",
".....                                                                      .....",
".....                                                                      .....",
"......  .                                                              .  ......",
"..........                                                            ..........",
"..........                                                            ..........",
"..........                                                            ..........",
"..........                                                            ..........",
"...........  .                                                    .  ...........",
"...............                                                  ...............",
"...............                                                  ...............",
"...............                                                  ...............",
"...............                                                  ...............",
"................       .                                .       ................",
".........................                              .........................",
".........................                              .........................",
".........................                              .........................",
".........................                              .........................",
"..........................                            ..........................",
"................................................................................",
"................................................................................",
"................................................................................",
"................................................................................",
"................................................................................",
"................................................................................",
"................................................................................",
"................................................................................",
"................................................................................",
"................................................................................",
"................................................................................",
"................................................................................",
"................................................................................",
"................................................................................",
"................................................................................",
"................................................................................",
"................................................................................",
"................................................................................",
"................................................................................",
"................................................................................"
};
