/* XPM */
static char *result[] = {
/* columns rows colors chars-per-pixel */
"81 81 248 2 ",
"   c #090A0A",
".  c #0A0B0B",
"X  c #0B0C0C",
"o  c #0C0D0D",
"O  c #0D0E0E",
"+  c #0E0F0F",
"@  c #0E1010",
"#  c #0F1010",
"$  c #101111",
"%  c #101212",
"&  c #111212",
"*  c #121313",
"=  c #131414",
"-  c #141515",
";  c #151616",
":  c #161717",
">  c #171818",
",  c #181919",
"<  c #191A1A",
"1  c #1A1B1B",
"2  c #1B1C1C",
"3  c #1C1D1D",
"4  c #1D1E1E",
"5  c #1E1F1F",
"6  c #232323",
"7  c #242525",
"8  c #292A2A",
"9  c #2A2B2B",
"0  c #2B2C2C",
"q  c #2C2D2D",
"w  c #2D2D2D",
"e  c #2F3030",
"r  c #313232",
"t  c #323333",
"y  c #333434",
"u  c #343434",
"i  c #343535",
"p  c #353636",
"a  c gray21",
"s  c #363737",
"d  c #373838",
"f  c #383939",
"g  c #393A3A",
"h  c gray23",
"j  c #3B3C3C",
"k  c #3D3E3E",
"l  c #3E3F3F",
"z  c #3F4040",
"x  c gray25",
"c  c #404141",
"v  c #414141",
"b  c #414242",
"n  c #424343",
"m  c #434444",
"M  c #444444",
"N  c #444545",
"B  c #454646",
"V  c #464646",
"C  c #464747",
"Z  c gray28",
"A  c #474848",
"S  c #484949",
"D  c #494949",
"F  c #494A4A",
"G  c gray29",
"H  c #4A4B4B",
"J  c #4B4B4B",
"K  c #4B4C4C",
"L  c #4C4C4C",
"P  c #4C4D4D",
"I  c gray30",
"U  c #4D4E4E",
"Y  c #4E4E4E",
"T  c #4E4F4F",
"R  c #505151",
"E  c #515151",
"W  c #515252",
"Q  c gray32",
"!  c #535454",
"~  c gray33",
"^  c #545555",
"/  c #555656",
"(  c #565757",
")  c gray34",
"_  c #585858",
"`  c #585959",
"'  c gray35",
"]  c #595A5A",
"[  c #5A5A5A",
"{  c #5A5B5B",
"}  c #5B5B5B",
"|  c #5B5C5C",
" . c gray36",
".. c #5C5D5D",
"X. c #5D5D5D",
"o. c #5D5E5E",
"O. c #5E5F5F",
"+. c #5F5F5F",
"@. c #5F6060",
"#. c #606060",
"$. c #606161",
"%. c gray38",
"&. c #626262",
"*. c #626363",
"=. c gray39",
"-. c #636464",
";. c #646464",
":. c #646565",
">. c #656565",
",. c #656666",
"<. c gray40",
"1. c #676767",
"2. c #686969",
"3. c #696A6A",
"4. c #6A6A6A",
"5. c #6A6B6B",
"6. c gray42",
"7. c #6B6C6C",
"8. c #6C6C6C",
"9. c #6D6D6D",
"0. c #6D6E6E",
"q. c gray43",
"w. c #6E6F6F",
"e. c #6F6F6F",
"r. c gray44",
"t. c #707171",
"y. c #717171",
"u. c #727272",
"i. c gray45",
"p. c #737474",
"a. c gray46",
"s. c gray47",
"d. c #787979",
"f. c #797A7A",
"g. c gray48",
"h. c #7A7B7B",
"j. c #7B7B7B",
"k. c #7E7E7E",
"l. c #7F8080",
"z. c #808080",
"x. c #818181",
"c. c #818282",
"v. c gray51",
"b. c #838383",
"n. c #838484",
"m. c #848484",
"M. c gray52",
"N. c #858686",
"B. c #898A8A",
"V. c #8A8B8B",
"C. c gray55",
"Z. c #8C8D8D",
"A. c #8D8D8D",
"S. c #8D8E8E",
"D. c gray56",
"F. c #909090",
"G. c #909191",
"H. c gray57",
"J. c #919292",
"K. c #929292",
"L. c #929393",
"P. c #939393",
"I. c gray58",
"U. c #959595",
"Y. c gray59",
"T. c #979797",
"R. c #979898",
"E. c #989898",
"W. c #999898",
"Q. c gray60",
"!. c #9A9999",
"~. c #9A9A9A",
"^. c #9B9A9A",
"/. c #9A9B9B",
"(. c #9B9B9B",
"). c #9B9C9C",
"_. c gray61",
"`. c #9D9D9D",
"'. c gray62",
"]. c #9F9F9F",
"[. c #9FA0A0",
"{. c #A0A0A0",
"}. c #A0A1A1",
"|. c #A1A2A2",
" X c #A2A2A2",
".X c #A2A3A3",
"XX c gray64",
"oX c #A5A5A5",
"OX c gray65",
"+X c #A7A7A7",
"@X c gray66",
"#X c #A9A9A9",
"$X c #AAAAAA",
"%X c gray67",
"&X c #ACACAC",
"*X c #ACADAD",
"=X c gray68",
"-X c #AEAEAE",
";X c #AFAFAF",
":X c gray69",
">X c #B0B1B1",
",X c #B1B1B1",
"<X c #B2B3B3",
"1X c gray71",
"2X c #B7B7B7",
"3X c gray72",
"4X c #B9B9B9",
"5X c gray73",
"6X c #BCBCBC",
"7X c gray74",
"8X c gray",
"9X c #BEBFBF",
"0X c gray75",
"qX c #C1C1C1",
"wX c #C6C6C6",
"eX c gray78",
"rX c #C7C8C8",
"tX c #C8C8C8",
"yX c #CACACA",
"uX c #CACBCB",
"iX c #CBCBCB",
"pX c gray80",
"aX c #CECECE",
"sX c #CECFCF",
"dX c gray81",
"fX c #D0D0D0",
"gX c #D2D2D2",
"hX c #D8D8D8",
"jX c gray85",
"kX c gainsboro",
"lX c gray87",
"zX c gray88",
"xX c #E2E2E2",
"cX c gray89",
"vX c #E4E4E4",
"bX c gray90",
"nX c #E6E6E6",
"mX c #E7E7E7",
"MX c gray91",
"NX c #E9E9E9",
"BX c #EAEAEA",
"VX c gray92",
"CX c #ECECEC",
"ZX c gray93",
"AX c #EEEEEE",
"SX c #EFEFEF",
"DX c gray94",
"FX c None",
/* pixels */
"FXFXFXFXFXFXFXFXFXFXFXFXFXFXFXFXFXFXFXFXFXFXFXFXFXFXFXFXFXFXFXFXFXFXFXFXFXFXFXFXFXFXFXFXFXFXFXFXFXFXFXFXFXFXFXFXFXFXFXFXFXFXFXFXFXFXFXFXFXFXFXFXFXFXFXFXFXFXFXFXFX",
"FXFXFXFXFXFXFXFXFXFXFXFXFXFXFXFXFXFXFXFXFXFXFXFXFXFXFXFXFXFXFXFXFXFXFXFXFXFXFXFXFXFXFXFXFXFXFXFXFXFXFXFXFXFXFXFXFXFXFXFXFXFXFXFXFXFXFXFXFXFXFXFXFXFXFXFXFXFXFXFXFX",
"FXFXFXFXFXFXFXFXFXFXFXFXFXFXFXFXFXFXFXFXFXFXFXFXFXFXFXFXFXFXFXFXFXFXFXFXFXFXFXFXFXFXFXFXFXFXFXFXFXFXFXFXFXFXFXFXFXFXFXFXFXFXFXFXFXFXFXFXFXFXFXFXFXFXFXFXFXFXFXFXFX",
"FXFXFXFXFXFXFXFXFXFXFXFXFXFXFXFXFXFXFXFXFXFXFXFXFXFXFXFXFXFXFXFXFXFXFXFXFXFXFXFXFXFXFXFXFXFXFXFXFXFXFXFXFXFXFXFXFXFXFXFXFXFXFXFXFXFXFXFXFXFXFXFXFXFXFXFXFXFXFXFXFX",
"FXFXFXFXFXFXFXFXFXFXFXFXFXFXFXFXFXFXFXFXFXFXFXFXFXFXFXFXFXFXFXFXFXFXFXFXFXFXFXFXFXFXFXFXFXFXFXFXFXFXFXFXFXFXFXFXFXFXFXFXFXFXFXFXFXFXFXFXFXFXFXFXFXFXFXFXFXFXFXFXFX",
"FXFXFXFXFXFXFXFXFXFXFXFXFXFXFXFXFXFXFXFXFXFXFXFXFXFXFXFXFXFXFX& & & & & & & & & & & & & & & & & & & FXFXFXFXFXFXFXFXFXFXFXFXFXFXFXFXFXFXFXFXFXFXFXFXFXFXFXFXFXFXFX",
"FXFXFXFXFXFXFXFXFXFXFXFXFXFXFXFXFXFXFXFXFXFXFXFXFXFXFXFXFXFX& & & & & & & & & & & & & & & & & & & & FXFXFXFXFXFXFXFXFXFXFXFXFXFXFXFXFXFXFXFXFXFXFXFXFXFXFXFXFXFXFX",
"FXFXFXFXFXFXFXFXFXFXFXFXFXFXFXFXFXFXFXFXFXFXFXFXFXFXFXFXFXFX& & & & & & & & & & & & & & & & & & & & FXFXFXFXFXFXFXFXFXFXFXFXFXFXFXFXFXFXFXFXFXFXFXFXFXFXFXFXFXFXFX",
"FXFXFXFXFXFXFXFXFXFXFXFXFXFXFXFXFXFXFXFXFXFXFXFXFXFXFXFXFXFX& & & & & & & & & & & & & & & & & & & & FXFXFXFXFXFXFXFXFXFXFXFXFXFXFXFXFXFXFXFXFXFXFXFXFXFXFXFXFXFXFX",
"FXFXFXFXFXFXFXFXFXFXFXFXFXFXFXFXFXFXFXFXFXFXFXFXFXFXFXFXFXFX# # # # # # # # # # # # # # # # # # # # FXFXFXFXFXFXFXFXFXFXFXFXFXFXFXFXFXFXFXFXFXFXFXFXFXFXFXFXFXFXFX",
"FXFXFXFXFXFXFXFXFXFXFXFXFXFXFXFXFXFXFXFXFX& & & & & & & & : T ' ` ` ` ` ` ` ` ` ` ` ` ` ` ` ` ` ` ` i # & & & & & & & & FXFXFXFXFXFXFXFXFXFXFXFXFXFXFXFXFXFXFXFXFX",
"FXFXFXFXFXFXFXFXFXFXFXFXFXFXFXFXFXFXFXFX& & & & & & & & & : f._.~.~.~.~.~.~.~.~.~.~.~.~.~.~.~.~.~.Q.l # & & & & & & & & FXFXFXFXFXFXFXFXFXFXFXFXFXFXFXFXFXFXFXFXFX",
"FXFXFXFXFXFXFXFXFXFXFXFXFXFXFXFXFXFXFXFX& & & & & & & & & : s.~.E.E.E.E.E.E.E.E.E.E.E.E.E.E.E.E.E.T.l # & & & & & & & & FXFXFXFXFXFXFXFXFXFXFXFXFXFXFXFXFXFXFXFXFX",
"FXFXFXFXFXFXFXFXFXFXFXFXFXFXFXFXFXFXFXFX& & & & & & & & & : s.~.E.E.E.E.E.E.E.E.E.E.E.E.E.E.E.E.E.T.l # & & & & & & & & FXFXFXFXFXFXFXFXFXFXFXFXFXFXFXFXFXFXFXFXFX",
"FXFXFXFXFXFXFXFXFXFXFXFXFXFXFXFXFXFXFXFX# # # # # # # # # ; s.~.E.E.E.E.E.E.E.E.E.E.E.E.E.E.E.E.E.T.k O # # # # # # # # FXFXFXFXFXFXFXFXFXFXFXFXFXFXFXFXFXFXFXFXFX",
"FXFXFXFXFXFXFXFXFXFXFXFXFXFXFXFX& & % < Q } { { { { { { { X.B.Q.E.E.E.E.E.E.E.E.E.E.E.E.E.E.E.E.E.E.e.] { { { { { { { { f @ & & & FXFXFXFXFXFXFXFXFXFXFXFXFXFXFXFX",
"FXFXFXFXFXFXFXFXFXFXFXFXFXFXFX& & & % < l._.~.~.~.~.~.~.~.~.Q.E.E.E.E.E.E.E.E.E.E.E.E.E.E.E.E.E.E.E.~.~.~.~.~.~.~.~.~.(.V # & & & FXFXFXFXFXFXFXFXFXFXFXFXFXFXFXFX",
"FXFXFXFXFXFXFXFXFXFXFXFXFXFXFX& & & % < k.~.E.E.E.E.E.E.E.E.E.E.E.E.E.E.E.E.E.E.E.E.E.E.E.E.E.E.E.E.E.E.E.E.E.E.E.E.E.Q.B # & & & FXFXFXFXFXFXFXFXFXFXFXFXFXFXFXFX",
"FXFXFXFXFXFXFXFXFXFXFXFXFXFXFX& & & % < k.~.E.E.E.E.E.E.E.E.E.E.E.E.E.E.E.E.E.E.E.E.E.E.E.E.E.E.E.E.E.E.E.E.E.E.E.E.E.Q.B # & & & FXFXFXFXFXFXFXFXFXFXFXFXFXFXFXFX",
"FXFXFXFXFXFXFXFXFXFXFXFXFXFXFX$ $ $ # , k.~.E.E.E.E.E.E.E.E.E.E.E.E.E.Q.!.Q.Q.Q.E.E.E.E.E.E.E.E.E.E.E.E.E.E.E.E.E.E.E.Q.N O $ $ $ FXFXFXFXFXFXFXFXFXFXFXFXFXFXFXFX",
"FXFXFXFXFXFXFXFXFXFXFX& & $ 1 ^ X... .#.Z.Q.E.E.E.E.E.E.E.E.E.E.E.E.Y.$.L I I T b.Q.E.E.E.E.E.E.E.E.E.E.E.E.E.E.E.E.E.E.p.| ......j # & & & FXFXFXFXFXFXFXFXFXFXFX",
"FXFXFXFXFXFXFXFXFXFX& & & $ 2 v._.~.~.~.E.E.E.E.E.E.E.E.E.E.E.E.E.E.I.t O # @ & y.~.E.E.E.E.E.E.E.E.E.E.E.E.E.E.E.E.E.E.Q.~.~.~.(.F # & & & FXFXFXFXFXFXFXFXFXFXFX",
"FXFXFXFXFXFXFXFXFXFX& & & $ 2 x.~.E.E.E.E.E.E.E.E.E.E.E.E.E.E.E.E.E.I.i # & & - u.~.E.E.E.E.E.E.E.E.E.E.E.E.E.E.E.E.E.E.E.E.E.E.Q.D # & & & FXFXFXFXFXFXFXFXFXFXFX",
"FXFXFXFXFXFXFXFXFXFX& & & $ 2 x.~.E.E.E.E.E.E.E.E.E.E.E.E.E.E.E.E.E.I.i # & & - u.~.E.E.E.E.E.E.E.E.E.E.E.E.E.E.E.E.E.E.E.E.E.E.Q.D # & & & FXFXFXFXFXFXFXFXFXFXFX",
"FXFXFXFXFXFXFXFXFXFX& & & $ 2 x.~.E.E.E.E.E.E.E.E.E.E.E.E.E.Q.Q.Q.~.U.y O # # * u._.Q.Q.Q.E.E.E.E.E.E.E.E.E.E.E.E.E.E.E.E.E.E.E.Q.D # & & & FXFXFXFXFXFXFXFXFXFXFX",
"FXFXFXFXFXFXFXFXFXFX& & & $ 2 x.~.E.E.E.E.E.E.E.E.E.E.E.E.U.o.G K J I j.A.C.C.V.o.H K K P z.Q.E.E.E.E.E.E.E.E.E.E.E.E.E.E.E.E.E.Q.D # & & & FXFXFXFXFXFXFXFXFXFXFX",
"FXFXFXFXFXFXFXFXFXFX& & & $ 2 x.~.E.E.E.E.E.E.E.E.E.E.E.E.P.e O # + ; <XSXCXCXmXU X # # $ q.~.E.E.E.E.E.E.E.E.E.E.E.E.E.E.E.E.E.Q.D # & & & FXFXFXFXFXFXFXFXFXFXFX",
"FXFXFXFXFXFXFXFXFXFX& & & $ 2 x.~.E.E.E.E.E.E.E.E.E.E.E.E.P.r # & & > :XVXMXMXvXT O & & = w.~.E.E.E.E.E.E.E.E.E.E.E.E.E.E.E.E.E.Q.D # & & & FXFXFXFXFXFXFXFXFXFXFX",
"FXFXFXFXFXFXFXFXFXFX& & & $ 2 x.~.E.E.E.E.E.E.E.E.E.E.E.E.P.r # & & > :XVXMXMXvXT O & & = w.~.E.E.E.E.E.E.E.E.E.E.E.E.E.E.E.E.E.Q.D # & & & FXFXFXFXFXFXFXFXFXFXFX",
"FXFXFXFXFXFXFXFXFXFX& & & $ 2 x.~.E.E.E.Q.Q.Q.Q.Q.Q.Q.Q.Q.I.r # & & > :XVXMXMXvXT O & & = e.(.Q.Q.Q.Q.Q.Q.Q.Q.Q.Q.Q.Q.Q.E.E.E.E.Q.D # & & & FXFXFXFXFXFXFXFXFXFXFX",
"FXFXFXFXFXFXFXFXFXFX& & & $ 2 x.~.E.E.P.` S F F F F F F F A 5 $ & & > :XVXMXMXvXT O & & * f H F F F F F F F F F F F F D g.Q.E.E.Q.D # & & & FXFXFXFXFXFXFXFXFXFXFX",
"FXFXFXFXFXFXFXFXFXFX& & & $ 2 x.~.E.Q.F.8 O # # # # # # # # $ & & & > :XVXMXMXvXT O & & & # # # # # # # # # # # # # # + =.^.E.E.Q.D # & & & FXFXFXFXFXFXFXFXFXFXFX",
"FXFXFXFXFXFXFXFXFXFX& & & $ 2 x.~.E.W.F.0 # & & & & & & & & & & & & > :XVXMXMXvXT O & & & & & & & & & & & & & & & & & $ ;.~.E.E.Q.D # & & & FXFXFXFXFXFXFXFXFXFXFX",
"FXFXFXFXFXFXFXFXFXFX& & & $ 2 x.~.E.W.F.0 # & & & & & & & & & & & & > :XVXMXMXvXT O & & & & & & & & & & & & & & & & & $ ;.~.E.E.Q.D # & & & FXFXFXFXFXFXFXFXFXFXFX",
"FXFXFXFXFXFXFXFXFXFX$ $ $ # 1 x.~.Q.Q.H.9 + $ $ $ $ $ $ $ $ $ $ $ # : :XVXMXMXvXU o $ $ $ $ $ $ $ $ $ $ $ $ $ $ $ $ $ # ;.(.Q.Q.~.S O $ $ $ FXFXFXFXFXFXFXFXFXFXFX",
"FXFXFXFXFX& & & $ 6 M.L.J.K.C.^ Z A A L n.L.J.J.J.J.J.J.J.J.J.J.J.J.I.gXNXMXMXnX$XF.J.J.J.J.J.J.J.J.J.J.J.J.J.J.J.J.J.K.:.C A A Z i.P.J.J.L.{ O & & & FXFXFXFXFXFX",
"FXFXFXFXFX& & & $ 7 yXAXCXZXkXp o # + 3 qXSXCXCXCXCXCXCXCXCXCXCXCXCXCXNXMXMXMXMXVXCXCXCXCXCXCXCXCXCXCXCXCXCXCXCXCXCXCXZX:.X # # O G.DXCXCXAXy.O & & & FXFXFXFXFXFX",
"FXFXFXFXFX& & & $ 7 eXBXMXNXhXs # & $ 5 0XVXMXMXMXMXMXMXMXMXMXMXMXMXMXMXMXMXMXMXMXMXMXMXMXMXMXMXMXMXMXMXMXMXMXMXMXMXMXNX:.O & & # D.CXMXMXBXr.O & & & FXFXFXFXFXFX",
"FXFXFXFXFX& & & $ 7 eXBXMXNXhXs # & $ 5 0XVXMXMXMXMXMXMXMXMXMXMXMXMXMXMXMXMXMXMXMXMXMXMXMXMXMXMXMXMXMXMXMXMXMXMXMXMXMXNX:.O & & # D.CXMXMXBXr.O & & & FXFXFXFXFXFX",
"FXFXFXFXFX& & & $ 7 eXBXMXNXhXa + $ $ 4 9XVXMXMXMXMXMXMXMXMXNXNXNXNXNXMXMXMXMXMXMXMXMXMXMXNXNXNXNXNXMXMXMXMXMXMXMXMXMXNX;.o $ $ # D.CXMXMXBXr.O & & & FXFXFXFXFXFX",
"FXFXFXFXFX& & & $ 7 eXBXMXNXlXh.&.-.=.7.sXBXMXMXMXMXMXMXMXcXm.=.>.:.2.wXBXMXMXMXMXMXMXMXnXS.*.>.>.,.6XBXMXMXMXMXMXMXMXNXT.%.-.-.*.,XBXMXMXBXr.O & & & FXFXFXFXFXFX",
"FXFXFXFXFX& & & $ 7 eXBXMXMXxX@X~.~.~.].jXNXMXMXMXMXMXMXNXzXb . O O = ;XVXMXMXMXMXMXMXMXbXE   O O + ].CXMXMXMXMXMXMXMXMX3XQ.~.~.~.tXNXMXMXBXr.O & & & FXFXFXFXFXFX",
"FXFXFXFXFX& & & $ 7 eXBXMXMXxXOXT.E.E.`.jXNXMXMXMXMXMXMXMXzXN + & & > :XVXMXMXMXMXMXMXMXbX! O & & * {.CXMXMXMXMXMXMXMXMX2XT.E.E.T.eXNXMXMXBXr.O & & & FXFXFXFXFXFX",
"FXFXFXFXFX& & & $ 7 eXBXMXMXxXOXT.E.E.`.jXNXMXMXMXMXMXMXMXzXN + & & > :XVXMXMXMXMXMXMXMXbX! O & & * {.CXMXMXMXMXMXMXMXMX2XT.E.E.T.eXNXMXMXBXr.O & & & FXFXFXFXFXFX",
"FXFXFXFXFX& & & $ 7 rXVXMXNXcXOXT.E.E.`.jXNXMXMXMXMXMXMXMXzXN + & & > :XVXMXMXMXMXMXMXMXbX! O & & * {.CXMXMXMXMXMXMXMXMX2XT.E.E.E.eXBXMXMXVXt.O & & & FXFXFXFXFXFX",
"FXFXFXFXFX& & & & , / =.&.*.#.F m M m Y tXBXMXMXMXMXMXMXMXzXN + & & > :XVXMXMXMXMXMXMXMXbX! O & & * {.CXMXMXMXMXMXMXMXNXn.v M M M / *.&.&.*.S FXFXFXFXFXFXFXFXFXFX",
"FXFXFXFXFX& & & & & + O O O O + # # + 3 8XVXMXMXMXMXMXMXMXzXN + & & > :XVXMXMXMXMXMXMXMXbX! O & & * {.CXMXMXMXMXMXMXMXNX=.X # # # + O O O O FXFXFXFXFXFXFXFXFXFXFX",
"FXFXFXFXFX& & & & & & & & & & & & & $ 5 0XVXMXMXMXMXMXMXMXzXN + & & > :XVXMXMXMXMXMXMXMXbX! O & & * {.CXMXMXMXMXMXMXMXNX:.O & & & & & & & & FXFXFXFXFXFXFXFXFXFXFX",
"FXFXFXFXFX& & & & & & & & & & & & & $ 5 0XVXMXMXMXMXMXMXMXzXN + & & > :XVXMXMXMXMXMXMXMXbX! O & & * {.CXMXMXMXMXMXMXMXNX:.O & & & & & & & & FXFXFXFXFXFXFXFXFXFXFX",
"FXFXFXFXFX& & & & & & & & & & & & & $ 5 0XVXMXMXMXMXMXMXMXzXN + & & > :XVXMXMXMXMXMXMXMXbX! O & & * {.CXMXMXMXMXMXMXMXNX:.O & & & & & & & & FXFXFXFXFXFXFXFXFXFXFX",
"FXFXFXFXFX& & & $ 4 M.).~.(.F.8 # & & : R $.@.+.<.iXBXMXMXbX*XQ.~.~.(.-X1X1X1X1X1X1X1X1X1X.X~.~.~./.aXNXMXMXMXG.X.@.@.@.e $ & & & & & & & & FXFXFXFXFXFXFXFXFXFXFX",
"FXFXFXFXFX& & & $ 7 uXAXCXZXkXd # & & & + O O o , 4XVXMXMXMXVXCXCXCXNX=XU.T.T.T.T.T.T.Y.E.gXZXCXCXCXNXMXMXMXMX..  O O O # & & & & & & & & & FXFXFXFXFXFXFXFXFXFXFX",
"FXFXFXFXFX& & & $ 7 eXBXMXNXhXs # & & & & & & $ 2 5XVXMXMXMXMXMXMXMXnX=XT.E.E.E.E.E.E.E.Q.dXNXMXMXMXMXMXMXMXMXO.O & & & & & & & & & & & & & FXFXFXFXFXFXFXFXFXFXFX",
"FXFXFXFXFX& & & $ 7 eXBXMXNXhXs # & & & & & & $ 2 5XVXMXMXMXMXMXMXMXnX=XT.E.E.E.E.E.E.E.Q.dXNXMXMXMXMXMXMXMXMXO.O & & & & & & & & & & & & & FXFXFXFXFXFXFXFXFXFXFX",
"FXFXFXFXFX& & & $ 7 eXBXmXMXhXs # & & & & & & $ 2 5XBXmXmXmXmXmXmXMXbX&XY.E.E.E.E.E.E.E.Q.dXNXmXmXmXmXmXmXmXmXO.O & & & & * * * * & & & & & FXFXFXFXFXFXFXFXFXFXFX",
"FXFXFXFXFXFXFXFXFXFX_ ....X.) 5 $ & & & & & & & ; P o...............| A x c c c c c c c v ~ X.................q $ & & $ 1.[.`.`.'.K + & & & FXFXFXFXFXFXFXFXFXFXFX",
"FXFXFXFXFXFXFXFXFXFXO O O O O $ & & & & & & & & & + O O O O O O O O O + # # # # # # # # # + O O O O O O O O O $ & & & $ R.DXCXCXAX8.O & & & FXFXFXFXFXFXFXFXFXFXFX",
"FXFXFXFXFXFXFXFXFXFX& & & & & & & & & & & & & & & & & & & & & & & & & & & & & & & & & & & & & & & & & & & & & & & & & $ U.CXMXMXBX5.O & & & FXFXFXFXFXFXFXFXFXFXFX",
"FXFXFXFXFXFXFXFXFXFX& & & & & & & & & & & & & & & & & & & & & & & & & & & & & & & & & & & & & & & & & & & & & & & & & $ U.CXMXMXBX5.O & & & FXFXFXFXFXFXFXFXFXFXFX",
"FXFXFXFXFXFXFXFXFXFX& & & & & & & & & & & & & & & * * * * * * * * * * * * * * * * * * * * & & & & & * * * * * * * * * & U.VXmXmXMX4.O & & & FXFXFXFXFXFXFXFXFXFXFX",
"FXFXFXFXFXFXFXFXFXFXFXFXFXFXFXFXFXFXFXFX& & & & , c.|.{.{.{.{.{.{.{.'.d.4.6.6.6.6.6.6.6.3.w # & & * r. X{.{.{.{.{.{.{.{.a.` ] ] [ n FXFXFXFXFXFXFXFXFXFXFXFXFXFXFX",
"FXFXFXFXFXFXFXFXFXFXFXFXFXFXFXFXFXFXFXFX& & & $ 3 7XSXCXCXCXCXCXCXCXBX:XQ.~.~.~.~.~.~.^.Q.j # & & * XXDXCXCXCXCXCXCXCXZX-.  O O O FXFXFXFXFXFXFXFXFXFXFXFXFXFXFXFX",
"FXFXFXFXFXFXFXFXFXFXFXFXFXFXFXFXFXFXFXFX& & & $ 2 5XVXMXMXMXMXMXMXMXnX=XT.E.E.E.E.E.E.E.Y.h # & & * {.CXMXMXMXMXMXMXMXNX:.O & & & FXFXFXFXFXFXFXFXFXFXFXFXFXFXFXFX",
"FXFXFXFXFXFXFXFXFXFXFXFXFXFXFXFXFXFXFXFX& & & $ 2 5XVXMXMXMXMXMXMXMXnX=XT.E.E.E.E.E.E.E.Y.h # & & * {.CXMXMXMXMXMXMXMXNX:.O & & & FXFXFXFXFXFXFXFXFXFXFXFXFXFXFXFX",
"FXFXFXFXFXFXFXFXFXFXFXFXFXFXFXFXFXFXFXFX& & & $ 2 4XNXnXnXnXnXnXnXnXvX=XT.Q.Q.Q.Q.Q.Q.Q.T.j # & & * {.CXMXMXMXMXMXMXMXNX:.O & & & FXFXFXFXFXFXFXFXFXFXFXFXFXFXFXFX",
"FXFXFXFXFXFXFXFXFXFXFXFXFXFXFXFXFXFXFXFX& & & & - S _ ) ) ) ) ) ) ( { ;XfXaXaXaXaXaXaXaXpXK + & & * {.CXMXMXMXMXMXMXMXNX:.O & & & FXFXFXFXFXFXFXFXFXFXFXFXFXFXFXFX",
"FXFXFXFXFXFXFXFXFXFXFXFXFXFXFXFXFXFXFXFX& & & & & + O O O O O O O O = :XZXNXNXNXNXNXNXBXmX~ O & & * {.CXMXMXMXMXMXMXMXNX:.O & & & FXFXFXFXFXFXFXFXFXFXFXFXFXFXFXFX",
"FXFXFXFXFXFXFXFXFXFXFXFXFXFXFXFXFXFXFXFX& & & & & & & & & & & & & & > :XVXMXMXMXMXMXMXMXbX! O & & * {.CXMXMXMXMXMXMXMXNX:.O & & & FXFXFXFXFXFXFXFXFXFXFXFXFXFXFXFX",
"FXFXFXFXFXFXFXFXFXFXFXFXFXFXFXFXFXFXFXFX& & & & & & & & & & & & & & > >XVXMXMXMXMXMXMXMXbX! O & & * }.CXMXMXMXMXMXMXMXNX:.O & & & FXFXFXFXFXFXFXFXFXFXFXFXFXFXFXFX",
"FXFXFXFXFXFXFXFXFXFXFXFXFXFXFXFXFXFXFXFX& & & & & = - - - = = = = * < ;XNXbXbXbXbXbXbXnXcX! O & & * ].NXbXbXbXbXbXbXbXnX;.O & & & FXFXFXFXFXFXFXFXFXFXFXFXFXFXFXFX",
"FXFXFXFXFXFXFXFXFXFXFXFXFXFXFXFXFXFXFXFX& & & & , N.+XoXoXXXj.9.q.q.0.} ~ ^ ^ ^ ^ ^ ^ ^ ~ f FXFXFXFXK ^ ^ ^ ^ ^ ^ ^ ^ ^ l FXFXFXFXFXFXFXFXFXFXFXFXFXFXFXFXFXFXFXFX",
"FXFXFXFXFXFXFXFXFXFXFXFXFXFXFXFXFXFXFXFX& & & $ 3 7XSXCXCXNX-XQ.~.(.Y.t X O O O O O O O O FXFXFXFXFXO O O O O O O O O O FXFXFXFXFXFXFXFXFXFXFXFXFXFXFXFXFXFXFXFXFX",
"FXFXFXFXFXFXFXFXFXFXFXFXFXFXFXFXFXFXFXFX& & & $ 2 5XVXMXMXbX%XT.E.E.I.i # & & & & & & & & FXFXFXFXFX& & & & & & & & & & FXFXFXFXFXFXFXFXFXFXFXFXFXFXFXFXFXFXFXFXFX",
"FXFXFXFXFXFXFXFXFXFXFXFXFXFXFXFXFXFXFXFX& & & $ 2 5XVXMXMXbX%XT.E.E.I.i # & & & & & & & & FXFXFXFXFX& & & & & & & & & & FXFXFXFXFXFXFXFXFXFXFXFXFXFXFXFXFXFXFXFXFX",
"FXFXFXFXFXFXFXFXFXFXFXFXFXFXFXFXFXFXFXFX& & & $ 2 3XMXbXbXxX#XU.Y.Y.K.u # & & & & & & & & FXFXFXFXFX& & & & & & & & & & FXFXFXFXFXFXFXFXFXFXFXFXFXFXFXFXFXFXFXFXFX",
"FXFXFXFXFXFXFXFXFXFXFXFXFXFXFXFXFXFXFXFXFXFXFXFXFXP Q W W R z g g g f 2 $ & & & FXFXFXFXFXFXFXFXFXFXFXFXFXFXFXFXFXFXFXFXFXFXFXFXFXFXFXFXFXFXFXFXFXFXFXFXFXFXFXFXFX",
"FXFXFXFXFXFXFXFXFXFXFXFXFXFXFXFXFXFXFXFXFXFXFXFXFXO O O O O + # # # # $ & & & & FXFXFXFXFXFXFXFXFXFXFXFXFXFXFXFXFXFXFXFXFXFXFXFXFXFXFXFXFXFXFXFXFXFXFXFXFXFXFXFXFX",
"FXFXFXFXFXFXFXFXFXFXFXFXFXFXFXFXFXFXFXFXFXFXFXFXFX& & & & & & & & & & & & & & & FXFXFXFXFXFXFXFXFXFXFXFXFXFXFXFXFXFXFXFXFXFXFXFXFXFXFXFXFXFXFXFXFXFXFXFXFXFXFXFXFX",
"FXFXFXFXFXFXFXFXFXFXFXFXFXFXFXFXFXFXFXFXFXFXFXFXFX& & & & & & & & & & & & & & & FXFXFXFXFXFXFXFXFXFXFXFXFXFXFXFXFXFXFXFXFXFXFXFXFXFXFXFXFXFXFXFXFXFXFXFXFXFXFXFXFX",
"FXFXFXFXFXFXFXFXFXFXFXFXFXFXFXFXFXFXFXFXFXFXFXFXFX& & & & & & & & & & & & & & & FXFXFXFXFXFXFXFXFXFXFXFXFXFXFXFXFXFXFXFXFXFXFXFXFXFXFXFXFXFXFXFXFXFXFXFXFXFXFXFXFX",
"FXFXFXFXFXFXFXFXFXFXFXFXFXFXFXFXFXFXFXFXFXFXFXFXFXFXFXFXFXFXFXFXFXFXFXFXFXFXFXFXFXFXFXFXFXFXFXFXFXFXFXFXFXFXFXFXFXFXFXFXFXFXFXFXFXFXFXFXFXFXFXFXFXFXFXFXFXFXFXFXFX"
};
