/* XPM */
static char *result[] = {
/* columns rows colors chars-per-pixel */
"72 72 224 2 ",
"   c #002500",
".  c #002901",
"X  c #013901",
"o  c #0F3316",
"O  c #113E15",
"+  c #0A0029",
"@  c #15042C",
"#  c #19062C",
"$  c #1D1627",
"%  c #140031",
"&  c #1C0033",
"*  c #1C0635",
"=  c #1C1D36",
"-  c #251D2E",
";  c #200933",
":  c #24033C",
">  c #260A3D",
",  c #290E3C",
"<  c #261635",
"1  c #281636",
"2  c #211C32",
"3  c #281A35",
"4  c #2A123C",
"5  c #2F1B3C",
"6  c #321C3F",
"7  c #1B2629",
"8  c #1F302D",
"9  c #28242B",
"0  c #25342B",
"q  c #29342E",
"w  c #233C2A",
"e  c #2A3D2E",
"r  c #2D2137",
"t  c #292536",
"y  c #2C2D34",
"u  c #2C2D38",
"i  c #332E35",
"p  c #33253A",
"a  c #36243E",
"s  c #342A39",
"d  c #2D3433",
"f  c #293636",
"g  c #2B3A33",
"h  c #2D3538",
"j  c #323232",
"k  c #323D37",
"l  c #303238",
"z  c #004501",
"x  c #024D02",
"c  c #0B4802",
"v  c #015301",
"b  c #045B05",
"n  c #0C5A03",
"m  c #0D4613",
"M  c #154A16",
"N  c #0C5713",
"B  c #125D15",
"V  c #1A5B15",
"C  c #1B571A",
"Z  c #026203",
"A  c #076504",
"S  c #0E6D04",
"D  c #136403",
"F  c #196304",
"G  c #126D04",
"H  c #1C6B04",
"J  c #027403",
"K  c #087603",
"L  c #147205",
"P  c #1B7105",
"I  c #147B05",
"U  c #1C7C06",
"Y  c #1F7E08",
"T  c #156312",
"R  c #1C6415",
"E  c #126C16",
"W  c #1C6A13",
"Q  c #1C6318",
"!  c #136A18",
"~  c #157213",
"^  c #226614",
"/  c #3A631C",
"(  c #237715",
")  c #39791B",
"_  c #194F20",
"`  c #195120",
"'  c #1A5B21",
"]  c #29492A",
"[  c #255424",
"{  c #33562B",
"}  c #2E4931",
"|  c #334235",
" . c #364736",
".. c #3B443A",
"X. c #3A5333",
"o. c #3A672F",
"O. c #4A453C",
"+. c #51473D",
"@. c #250042",
"#. c #2B0543",
"$. c #2B0943",
"%. c #270049",
"&. c #2C004A",
"*. c #300E45",
"=. c #311444",
"-. c #321A40",
";. c #391D45",
":. c #3B164C",
">. c #3A184B",
",. c #372042",
"<. c #554643",
"1. c #595344",
"2. c #058706",
"3. c #0F8302",
"4. c #048A04",
"5. c #118104",
"6. c #1E8807",
"7. c #1C9808",
"8. c #298A09",
"9. c #2C940E",
"0. c #3E831D",
"q. c #309A1B",
"w. c #16AD08",
"e. c #1EAD09",
"r. c #22AE0A",
"t. c #2CB409",
"y. c #34B50B",
"u. c #35B90C",
"i. c #37A31E",
"p. c #3BAA1C",
"a. c #3AB510",
"s. c #3D8824",
"d. c #40A61A",
"f. c #48B81D",
"g. c #53BB1F",
"h. c #4B9B26",
"j. c #55BB21",
"k. c #2DCA0B",
"l. c #32C30B",
"z. c #30CC0D",
"x. c #3DD60D",
"c. c #3DE70E",
"v. c #3FEB0E",
"b. c #4ECE0F",
"n. c #45D60D",
"m. c #4AD30E",
"M. c #45DB0E",
"N. c #4ECE13",
"B. c #51C717",
"V. c #4ED412",
"C. c #4EDA11",
"Z. c #51D212",
"A. c #43E20E",
"S. c #44E90E",
"D. c #4FFC0F",
"F. c #52EA12",
"G. c #58ED11",
"H. c #55F511",
"J. c #53FC10",
"K. c #5CFD11",
"L. c #64FF12",
"P. c #6BFF16",
"I. c #47C421",
"U. c #4BC421",
"Y. c #55C524",
"T. c #59C625",
"R. c #5EC923",
"E. c #5ED926",
"W. c #61D325",
"Q. c #60D924",
"!. c #68E826",
"~. c #6DE328",
"^. c #72EF29",
"/. c #8BC83F",
"(. c #8F974B",
"). c #8CB846",
"_. c #93BA46",
"`. c #AEBB4E",
"'. c #B2BC4E",
"]. c #ACBC56",
"[. c #B3BC57",
"{. c #8AC543",
"}. c #95CB47",
"|. c #90DF45",
" X c #ABC754",
".X c #A9CC53",
"XX c #93E346",
"oX c #9AE843",
"OX c #ADEA4E",
"+X c #B2EB4B",
"@X c #AFF14E",
"#X c #B5F54E",
"$X c #BAF74D",
"%X c #A6EA52",
"&X c #AAEB53",
"*X c #B2EC54",
"=X c #ABF553",
"-X c #ACF154",
";X c #B4F654",
":X c #B4CD6E",
">X c #B4E763",
",X c #BCE870",
"<X c #C2FB4A",
"1X c #C1F757",
"2X c #C4FF5E",
"3X c #CCFF5F",
"4X c #EDFF5C",
"5X c #F3FF5E",
"6X c #C1D86D",
"7X c #C1ED6A",
"8X c #C8F36D",
"9X c #D6FF60",
"0X c #DEFF66",
"qX c #D7FF6D",
"wX c #D9FF6E",
"eX c #DFFF72",
"rX c #E5FF63",
"tX c #EAFF63",
"yX c #E2FF6B",
"uX c #EBFF6A",
"iX c #F2FF64",
"pX c #E4FF73",
"aX c #E9FF74",
"sX c #F2FF73",
/* pixels */
"%Xr.r.r.r.%XeXwXwX%Xr.r.r.r.*XyX0XyX#XA.M.A.M.$XiXtXiX[.# # # # - r r r 3 # # # # '.5X4X4X<XA.M.A.A.$XtXrXuX+Xr.r.r.r.%XpXqXwX%Xr.r.r.r.%XeXwXqX",
"%Xr.r.r.r.%XwXwXeX%Xr.r.r.r.OXrX0X0X#XM.c.M.M.<XiXtXiX'.# @ # # - r r r 3 # # # # '.4X4X4X<XM.M.M.M.$XtXuXuX*Xr.r.r.r.%XeXqXeX%Xr.r.r.r.%XeXqXqX",
"%Xe.e.e.r.%XeXeXpX%Xr.r.e.r.OXyX0XyX$XA.M.A.A.<XiXiXiX[.@ @ @ @ 1 r r 3 < @ @ @ #  X5X4X4X<Xn.M.A.A.$XuXuXuX+Xe.r.r.e.&XeXpXeX%Xr.e.e.e.%XpXwXeX",
"|.Y.Y.Y.Y.XX-X&X-XXXY.B.Y.Y._.].].].).p.p.p.p._.[.[.[.(.+.+.+.O.X.] ] { { +.+.+.+.(.`.`.`.).d.a.p.p._.[.[.[._.Y.T.g.B.XX%X%X%X|.Y.Y.Y.Y.XX%X%X%X",
"Y.qXqXqXqXE.l.l.u.W.4X0XrXrXO.+ % % * t r r t * & # % O.rXrX0XrXQ.k.k.k.W.4X4X0XrX..+ + + # r r r r ; & & @ <.rX4XrXrXj.r.r.r.Y.qXwXwXqXY.e.r.r.",
"T.qXqXqXwXW.l.l.l.E.0X4X4XrX<.% % % * t r r r * % & % O.4XrX4X4XQ.k.z.k.W.4XrXrXrXO.+ + + @ r r r r ; & & % O.4X0XrXrXB.e.r.e.Y.wXqXqXwXY.r.r.r.",
"T.qXqXqXwXE.u.l.l.W.rXrX4X0XO.+ % % * r r r t * % % % O.0XrXrX9XQ.k.k.k.E.0XrXrXrXO.+ + + # r r r r ; & & % +.rX4X0XrXY.r.r.e.Y.qXwXqXqXY.e.r.r.",
"T.qXqXeXqXW.l.l.l.W.9X4X0X0X<.% % @ * r r r t * % % % O.4X0XrXrXE.k.k.k.Q.4X4X9XrXX.+ + + # r r r r ; * & % <.tX0X4X4XY.e.r.e.Y.wXqXwXqXY.r.r.r.",
"XXE.E.E.E.8.S L S ^ <.<.<.<.h.f.f.B.s.$.> $.@.s.f.f.f.g.W.B.R.R.oX-X-X-XXXT.Y.B.T._.`.].'.(.> 4 3 4 m N N N M <.O.+.<._.&XOXOXXXY.Y.Y.Y.|.%X%X%X",
"%Xl.u.l.u.S x x x X : & : : B.K.K.K.f.@.@.: @.f.D.H.H.A.y.t.t.t.%XpXwXwX%Xr.r.e.r.+XtXrXiX X, , 4 > B J J J N @ % % % ].yXrXyX+Xr.e.e.e.%XpXwXeX",
"&Xl.l.l.l.S x x v O : * : > f.J.J.K.f.@.@.@.@.f.J.H.H.F.t.t.t.t.%XwXwXwX%Xr.r.r.r.OXtX4XtX[.4 4 4 > N J J J N % & & & ].yX0XyXOXr.r.r.r.%XeXqXqX",
"&Xl.l.u.l.S x x x o : : : @.f.K.K.K.f.@.@.@.@.f.J.H.H.S.t.t.t.t.&XpXwXpX%Xr.e.e.r.+XrXrXtX X> > > 4 N J J J N & & & & ].yXrXyXOXr.e.r.e.%XpXeXwX",
"XXE.E.W.E.9.I I 5.V : : : : f.K.J.K.B.| | | k B.H.G.H.C.T.R.R.T.XX&X%X%X|.Y.Y.Y.j.oX$X$X<X_.9 - 7 9 ~ e.7.7.( * * * * ).$X#X$XoXY.Y.Y.Y.XX&X&X&X",
"T.qXwXwXeX^.D.D.J.f.@.@.@.@.f.J.H.H.H.G.G.G.G.m.n.n.n.~.qXqXqXqXY.r.r.e.Y.wXwXqXwX~.n.n.n.y.x v x x b.L.L.L.j.$.%.$.$.p.S.c.v.!.qXqXqXqXY.e.r.r.",
"Y.qXwXwXqX^.D.J.J.f.@.@.@.@.f.H.H.H.H.G.G.G.G.F.m.M.n.~.qXeXqXqXY.e.r.e.Y.qXqXwXwX~.m.n.m.y.x x x x b.L.L.L.Y.$.$.$.$.p.v.v.v.!.qXqXeXqXY.e.r.r.",
"Y.qXwXwXqX^.D.D.D.f.@.@.@.@.f.H.H.H.H.G.G.G.G.C.M.M.n.~.qXqXqXqXY.r.r.r.Y.eXqXqXwXQ.n.n.M.y.x x v x b.L.L.L.j.$.$.$.$.p.v.v.v.!.qXqXqXqXY.e.r.r.",
"T.qXqXqXqX^.D.D.J.f.@.@.@.@.f.H.H.H.H.F.F.F.G.C.M.V.n.~.eXqXqXqXj.r.r.r.T.wXqXqXwX~.n.n.n.y.x x x x m.L.L.L.j.$.$.$.$.p.v.c.c.!.eXqXqXqXY.e.r.r.",
"XXE.E.E.E.o.|  .g o.j.g.g.g.o.|  .,.{ 7.7.7.7.] h k h o.~.!.~.~.oXOXOXOXoXQ.~.~.~.9.L L L 8.m.m.Z.b.o.O.....X.V T V B } | | } o.E.E.E.E.XX%X%X%X",
"-Xk.k.k.k.f %.%.@.| L.L.K.L.| %.%.%.= J J J J = %.%.%.h c.c.M.c.#XyXyXyX$Xn.n.n.n.L z x z U P.P.P.P...&.&.&.2 3.5.5.5.8 %.$.%.k k.k.k.k.-XeXeXwX",
"%Xz.z.z.k.f @.@.: | L.L.L.L...%.%.%.= 2.J J J = %.%.%.k M.M.M.M.#XrX0XyX#XM.n.C.n.L x x z 6.P.L.L.P...&.&.&.t I I 5.5.t $.$.%.| z.z.z.z.-XeXqXqX",
"-Xk.k.k.k.f @.@.@. .L.L.L.L...%.%.%.= J J J J = %.%.%.h A.A.A.A.;XuXyXyX$Xn.M.n.m.L x x x 6.P.P.P.L...&.&.&.t I 5.5.I 8 $.$.$.g k.k.k.k.-XpXwXwX",
"XXE.E.E.E.| : @.: e m.m.m.m.o. .....} N N N N } .... .o.y.u.u.u.). X].[.).u.u.y.u.R O m O ^ V.V.C.C.{ 3 3 3 w I I I I 9 $.$.$. .Q.Q.Q.Q.XX&X%X&X",
"Y.0X0X0X0X1.= < 1 8 Z Z Z Z m.P.L.L.j.%.%.%.%.j.L.L.P.b.x v x x - %.#.#.- Z Z Z Z u :.:.:.u S S G S H P P P L I I I L 0 < < < 1.yXtXyXtXT.r.r.r.",
"T.0X0X0X0X1.< < 1 7 Z Z Z Z m.L.L.L.j.%.%.%.%.j.L.L.L.Z.x x x v = $.$.&.2 Z Z b Z u :.:.:.h S S S S G P P P P I I I I 0 < < < 1.tXyXtXrXT.e.r.r.",
"T.0X0X0X0X1.= < 1 8 Z Z Z Z m.L.L.L.j.&.%.%.%.g.L.P.L.b.x x x x 2 @.@.$.- Z Z Z Z h >.>.:.h S S S S G L H P P I L L L 0 < < < 1.tXuXrXuXY.e.r.r.",
"T.0X0X0X0X1.; 3 1 7 Z Z Z Z m.L.L.L.j.%.&.%.%.g.L.L.L.m.x x n x - #.$.#.2 Z Z Z Z ,.>.>.:.u S S S S P H L P P I I I I 0 < 1 3 +.yXrXyXtXY.r.r.r.",
"oX!.!.!.!.X., 4 4 3 y d y y W 8.Y U 9.j.g.g.j.8.P P P 8.N.Z.N.N.^ m m m ^ V.V.V.V.( N C B _ u u h u W I I I W d l l d s p p p | 0.0.0.0.}.&X&X*X",
";Xv.v.v.c.} , 4 4 4 ;.;.;.;.O z z z U P.P.P.P.P X X X P P.P.P.P.6.Z Z Z 7.P.P.P.P.7.J J J B :.:.:.:.Q 5.5.3.R ;.;.;.;.s i i i 0 v v v v .XuXpXpX",
";Xv.c.c.v.} > 4 4 4 ;.,.;.;.m x v x U P.L.P.P.P X X X ( P.P.P.P.6.b Z Z 8.L.P.P.P.7.J J J B :.:.:.>.R 5.5.5.R ;.;.;.;.s i i s 0 v v b v .XuXeXuX",
";Xv.v.v.v.} > > > =.;.;.;.;.O z x z U P.L.P.P.P X X X H P.P.P.P.7.b Z Z 6.P.P.P.P.e.J J J B :.:.:.:.R 5.5.5.R ;.;.;.;.p i s s 0 v v v v .XaXpXpX",
"XXp.i.p.p.o.{ X.X.} i y d y ^ 6.Y Y 9.b.b.b.b.8.P P P 9.Z.Z.Z.V.( m M M ( V.C.C.V.( B B B ` h k f h [ R Q Q ' g g g d i i p s j m m m m {.=X;X&X",
"i.> @.@.@.g.L.L.L.m.n n n n Z.P.P.P.N.c c c c b.P.P.P.Z.n A Z Z u :.:.:.u J J J J u :.>.:.f 2.2.2.2.f >.:.:.h 2.2.2.2.e a a a a 5 -.5 r q.z.z.z.",
"i.@.@.@.@.g.L.L.L.m.n n n n Z.P.P.P.b.c c c c B.P.P.P.C.Z Z Z Z u :.>.:.h J J J J u :.>.:.h 2.2.2.2.h :.>.>.,.2.2.2.2.} -.,.,.u 5 -.r 5 q.z.z.z.",
"i.@.@.@.@.g.L.L.L.m.n n n n Z.P.P.P.B.c c c c b.P.P.P.Z.b Z Z b u :.>.:.u J J J J h :.>.:.h 2.2.2.2.h :.>.>.} 4.2.2.2.} ,.,.,.,.5 5 -.-.q.z.z.z.",
"i.@.: @.@.g.L.K.L.m.n n n n b.P.P.P.b.c c c c b.P.P.P.Z.Z Z Z Z u :.>.:.h J J J J u :.:.:.h 2.2.4.4.h >.>.>.,.2.2.4.2.} ,.p p ,.-.-.5 -.q.z.k.z.",
").< 2 < < | O.X.X.{ L L L H 8.8.8.8.Y F F F F Y 8.8.8.( u u u u ` Q Q Q [ u h u h ' ! ! ! ' h f | ,.' ! ! ! ! k ,.} ,.! W R ! C 3 1 3 3 {.=X@X@X",
"`.2 - - - =.$.=.=.y I I I I D D F D D H H H H F F n D M :.>.:.>.R 3.5.3.Q :.:.:.:.! 4.4.4.! :.:.>.>.! 4.4.4.E >.:.:.:.R 3.5.5.T < 1 < <  XyX0XrX",
"`.9 2 - - -.=.=.=.u U L L U G D H D F F H H H F H D H C >.>.>.>.Q 5.5.5.Q >.>.:.:.! 4.4.4.! >.>.>.>.! 4.4.4.E >.>.>.>.Q 5.5.5.T < 1 3 < [.yX0XwX",
"'.9 - - - 4 *.*.*.y I I L L G D D D H F H H H D D D D M :.:.:.>.Q 5.I 5.Q :.:.:.:.! 4.4.4.! >.:.>.;.E 4.4.4.! ;.:.:.:.Q 5.5.5.T 1 1 < <  XuXyXrX",
").3 3 3 2 t f q d w R R ^ ^ C C M C V H H H H D H F F V l l l l R I I I R h h h h ' ! ! ! ' h h f ,.' E ! ! ' ,.h h h W I I 5.R 1 , 1 > ).;X-X=X",
"p.=.=.=.=.! 4.2.4.E a a a a ,.;.a ;.d U I I L H H H H H U L I L H H H H P I 5.5.5.h :.>.:.h 4.2.2.2.h :.>.:.h 5.I 5.I I I I I C $.$.$.$.q.z.z.z.",
"p.=.=.=.=.! 4.2.4.E a a a a ,.,.;.;.d I L U I P F H H H L U U L G H H H L I 5.I I h :.>.:.h 2.2.2.2.h :.>.:.l I I 5.5.I I L U C $.$.$.$.q.z.z.z.",
"p.=.=.=.*.! 2.2.4.E a a a a ,.;.;.;.j P I L L H H F H H I I I I H H H H P 5.I 5.I h :.>.:.h 2.4.2.2.f :.>.:.h 5.5.5.5.I U I I V $.$.$.$.q.z.k.z.",
"p.=.=.=.=.! 4.2.4.E a a a a ,.,.;.;.j U U I U P H H H H I P U L H F H H H 5.5.5.5.h :.>.:.h 2.4.2.2.k :.>.:.l I 5.I I I L L U V $.$.$.$.q.k.z.z.",
"{.m m m m 8 ] } } d a a ,.p ' E ! E ' i u l l W I I I W g j d d ^ I I I W h l l h ' ! ! ! ' k f f g ' E ! ! ' g g d g q q q q { p.p.p.p.|.-X-X-X",
"}.v v v v q ,.6 a a p ,.,.p E 4.4.4.! :.:.:.:.R 3.5.3.Q ;.;.;.;.R 5.5.5.V :.:.:.:.! 4.2.4.E ,.>.;.;.E 4.4.4.E ;.;.;.;.-.5 5 =.{ v.v.v.v.;XeXwXwX",
".Xv v v v q a a ,.,.,.p s ,.E 4.2.4.! >.>.:.>.R 5.I 5.R ;.;.;.;.R 5.5.5.Q >.>.>.:.! 4.2.4.E ,.;.;.,.E 4.2.4.! ;.;.;.;.-.5 5 4 { c.c.c.c.=XeXwXwX",
".Xv v v v q ,.p s a a a a ,.E 4.4.4.! :.:.:.:.R 3.5.3.W ;.;.;.;.R 5.5.3.R :.:.:.:.! 4.4.4.E ,.,.;.;.E 4.4.4.E ;.;.;.;.-.5 5 =.X.c.c.c.c.;XeXeXwX",
"{.0.0.0.) k 5 5 5 r w e e e Q ! ! E ' h h h f [ W R R [ a a a a [ W W W ' f f d f C ~ E E [ a a ,.,.' ~ E E C g g g f t 4 4 =.X.!.^.!.!.oX&X&X%X",
"R.rXrXyXrX+.% ; % 7 2.2.4.2.f ;.;.;.g 4.2.4.2.g ;.;.,.,.j j j j s a a a g 2.2.2.2.} ,.a p s j j l j s a a a e 4.2.2.2.8 4 4 > 1.0X0X0X0XY.e.r.r.",
"T.uXyXtXuX<.% * & 7 2.2.2.2.g ;.;.;.g 2.2.2.2.g ;.,.;.a j j j j s ,.,.,.e 2.2.2.2.} a a p s j j j j p ,.a a g 2.2.2.2.8 > , > 1.0X0X0X0XY.e.r.r.",
"T.rXyXuXtX<.% % & 7 2.2.2.2.g ;.;.;.g 2.2.2.2.g ;.;.,.,.j j j j s a p a e 2.2.2.2.e a ,.,.p j j j l s s a a } 2.2.2.2.8 4 > > 1.0X0X0X0XY.e.r.r.",
"R.tXrXrXuX<.% & % 7 4.4.2.2.f ;.;.;.g 4.2.4.2.g ;.;.;.,.d d i i p ,.p ,.g 2.2.2.2.e ,.a a s j j j j s a a a e 4.2.2.4.8 , 1 > 1.rX0X0X0XY.r.r.r.",
"|.T.T.T.T._.`.].`.(.0 8 8 8 h i i i l e g e e Q E ! E ' i i i i s s s s i e e } e h i i i i j j j j i i i i i g g g g M m m m ( W.W.W.W.XX&X%X&X",
"%Xe.e.e.e.+XtXrXtX X, , , , y i j j l ,.,.,.,.E 4.4.4.~ i i s s s i s s s a a a a i d j j j j j j j j j j j i ;.;.;.;.M Z Z b I l.l.l.l.;XeXwXwX",
"%Xr.r.r.r.+XtX4XrX[., 4 , , y j j j i s ,.p p E 4.4.4.E s s s i s s s s s a a a a i j j j j j j j j j j j j i ;.;.;.;.N Z Z Z K l.l.l.l.&XwXwXwX",
"%Xe.r.e.r.+XtXrXtX[., , , , u j j j i a a a ,.~ 4.4.4.~ s s l s s s i s p a a a p i j j j j j j j j j j j j i ;.;.;.;.M Z b b I u.l.l.l.&XeXeXwX",
"|.Y.j.Y.B.oX+X#X#X_.7 7 9 7 u i i i i s a s p C ~ ~ ~ C s s s s e e e e e q e q q i i i i j j j j j j i i i i d h d d W 5.5.3.9.W.W.W.W.XX%X%X%X",
"T.qXwXwXwXW.l.l.l.r.n Z Z Z q a a a a i s s i s u i s s ,.a p ,.V S S S S S G G S e ,.p a a j j j j a a s a q G S S S u.m.n.n.~.yXpXyXpXT.e.r.r.",
"T.qXwXwXwXW.l.l.l.t.b b Z b q a a a a s i s s s i p s s a a ,.s V S S S S S S G G e ,.a a s j j j j p a a a e S S S S u.n.n.n.~.wXpXyXyXY.r.r.r.",
"T.qXqXqXwXE.u.l.u.r.Z Z Z Z q a a a s s s i i s s s s s ,.s ,.,.V S S S S S S S S g ,.a a s j j j j s a a a e G S S L u.n.n.n.~.yXpXyXwXT.e.r.r.",
"T.qXqXqXqXW.l.l.l.r.Z Z Z Z q a a i s s s s s s s i s s p p ,.s V S S S S S S S S d a a a s j j j j a a a a q G S G G u.n.n.m.~.pXyXyXpXY.r.r.r.",
"|.T.Y.Y.Y.XX*X&X#X|.y.y.y.u.^ M M M M ^ R ^ R l ,.,.,.h B B B T y.m.n.m.m.m.m.m.m.6.B T B M a a a a [ ^ ^ V V n v v x /.1X1X1X}./ o./ / {.*X&X&X",
"%Xe.e.e.r.%XpXwXpX;XM.n.M.m.U n n n D I I L I d ;.;.;.d J J J J n.L.L.L.K.L.K.L.K.7.J J J B ;.;.;.;.^ L I I S z z z z .XsXsXsX X         XaXpXpX",
"%Xr.r.r.r.%XeXqXwX*Xn.n.n.n.U n n n n U L U L d ,.,.;.d J J J J M.K.L.K.K.L.K.L.H.7.J J J B ,.,.;.;.^ I L I G z z z z .XsXuXsX X    . .  XeXwXyX",
"&Xr.r.r.r.%XpXwXeX;Xn.n.n.n.U x n n D L I I I l >.;.;.y J J J J V.L.K.L.L.K.K.L.L.7.J J J B ,.;.;.;.V I U I G z z z z .XsXaXsX X         XuXpXpX",
"|.Y.U.U.U.|.%X%X%XXX!.~.!.Q.9.U U U L G S G S ] k g d ] B B B T d.B.j.B.g.g.B.B.B.( N B B C f f d f T G G S W ) ) ) ) }.*X*X*X}./ / / / {.*X&X&X",
"Y.2X2X2X2XI.w.w.w.I.2X2X2X2X!.x.x.x.t.x x x z S I 5.5.W a a a ,.r r r r 3 5 5 r 5 a a a ,.0 Z Z Z Z v z z z ) 9X9X9X9XU.w.w.w.U.3X3X3X3XU.w.w.e.",
"Y.2X2X2X2XI.w.w.w.I.2X2X2X3XE.x.x.x.t.x x x x K 5.I 5.R a a p a r r r r r r r r r p p ,.,.e Z J J Z v z z z ) 9X9X9X9XU.w.w.w.U.3X3X3X3XU.w.e.w.",
"Y.2X2X8X2XI.w.e.w.I.2X2X2X;X!.x.x.x.t.x x x x ~ 5.5.5.W a a p a r r r r r r r r r a ,.s p q Z Z Z Z v z z z ) 9X9X9X9XI.w.w.w.U.3X3X3X3XU.w.e.e.",
"Y.2X8X;X2XI.w.e.w.I.2X8X2X2XE.x.M.x.t.x x x x S 5.I 5.R p s ,.,.r r r r r r r r r a p ,.,.q J J Z J z z z z ) 9XqX9X9XI.w.e.w.U.3X3XqX3XU.w.e.w.",
"-XaXpXpXaX7X>X>X>X,XeXeXeXeX8X8X8X8X7X:X:X:X:XX.o o o 7 9 9 y 9 9 9 9 9 9 9 9 3 9 $ $ $ $ O.:X:X:X:X:X:X:X:X6XpXaXpXpX8X>X>X>X,XeXeXeXpX8X,X,X,X"
};
